<?xml version="1.0" encoding="utf-8"?>
<!-- Generator: Adobe Illustrator 26.1.0, SVG Export Plug-In . SVG Version: 6.00 Build 0)  -->
<svg version="1.1" id="레이어_1" xmlns="http://www.w3.org/2000/svg" xmlns:xlink="http://www.w3.org/1999/xlink" x="0px"
	 y="0px" width="15px" height="8.5px" viewBox="0 0 15 8.5" style="enable-background:new 0 0 15 8.5;" xml:space="preserve">
<style type="text/css">
	.st0{fill:#313131;}
</style>
<path class="st0" d="M14.8,0.2c-0.3-0.3-0.9-0.3-1.2,0L7.5,6.4L1.4,0.2c-0.3-0.3-0.9-0.3-1.2,0c-0.3,0.3-0.3,0.9,0,1.2l6.7,6.8
	C7,8.3,7.1,8.4,7.2,8.4c0,0,0,0,0,0c0,0,0.1,0,0.1,0c0,0,0.1,0,0.1,0c0,0,0,0,0.1,0c0,0,0,0,0,0c0.1,0,0.1,0,0.2,0c0,0,0,0,0,0
	c0.2,0,0.3-0.1,0.4-0.2l6.7-6.8C15.1,1.1,15.1,0.6,14.8,0.2z"/>
</svg>
