<svg xmlns="http://www.w3.org/2000/svg" viewBox="0 0 48.64 44.69"><defs><style>.cls-1{fill:#323232;}</style></defs><g id="Layer_2" data-name="Layer 2"><g id="Layer_1-2" data-name="Layer 1"><path class="cls-1" d="M44.19,4.38H41.35V1.83a1.94,1.94,0,0,0-3.88,0V4.38H11.26V1.83A1.89,1.89,0,0,0,9.32,0,1.89,1.89,0,0,0,7.38,1.83V4.38H4.45A4.34,4.34,0,0,0,0,8.58V40.49a4.34,4.34,0,0,0,4.45,4.2H44.19a4.34,4.34,0,0,0,4.45-4.2V8.58A4.34,4.34,0,0,0,44.19,4.38ZM4.45,7.63H7.38v2.61a1.89,1.89,0,0,0,1.94,1.83,1.89,1.89,0,0,0,1.94-1.83V7.63H37.47v2.61a1.94,1.94,0,0,0,3.88,0V7.63h2.84a1,1,0,0,1,1,1V15H3.45V8.58A1,1,0,0,1,4.45,7.63ZM44.19,41.44H4.45a1,1,0,0,1-1-.95V18.21H45.19V40.49A1,1,0,0,1,44.19,41.44Z"/><rect class="cls-1" x="9.12" y="23.28" width="3.91" height="3.69"/><rect class="cls-1" x="17.95" y="23.28" width="3.91" height="3.69"/><rect class="cls-1" x="26.78" y="23.28" width="3.91" height="3.69"/><rect class="cls-1" x="35.61" y="23.28" width="3.91" height="3.69"/><rect class="cls-1" x="9.12" y="30.33" width="3.91" height="3.69"/><rect class="cls-1" x="17.95" y="30.33" width="3.91" height="3.69"/><rect class="cls-1" x="26.78" y="30.33" width="3.91" height="3.69"/><rect class="cls-1" x="35.61" y="30.33" width="3.91" height="3.69"/></g></g></svg>