<?xml version="1.0" encoding="utf-8"?>
<!-- Generator: Adobe Illustrator 25.4.1, SVG Export Plug-In . SVG Version: 6.00 Build 0)  -->
<!DOCTYPE svg PUBLIC "-//W3C//DTD SVG 1.1//EN" "http://www.w3.org/Graphics/SVG/1.1/DTD/svg11.dtd" [
	<!ENTITY ns_extend "http://ns.adobe.com/Extensibility/1.0/">
	<!ENTITY ns_ai "http://ns.adobe.com/AdobeIllustrator/10.0/">
	<!ENTITY ns_graphs "http://ns.adobe.com/Graphs/1.0/">
	<!ENTITY ns_vars "http://ns.adobe.com/Variables/1.0/">
	<!ENTITY ns_imrep "http://ns.adobe.com/ImageReplacement/1.0/">
	<!ENTITY ns_sfw "http://ns.adobe.com/SaveForWeb/1.0/">
	<!ENTITY ns_custom "http://ns.adobe.com/GenericCustomNamespace/1.0/">
	<!ENTITY ns_adobe_xpath "http://ns.adobe.com/XPath/1.0/">
]>
<svg version="1.1" id="레이어_1" xmlns:x="&ns_extend;" xmlns:i="&ns_ai;" xmlns:graph="&ns_graphs;"
	 xmlns="http://www.w3.org/2000/svg" xmlns:xlink="http://www.w3.org/1999/xlink" x="0px" y="0px" width="20px" height="20px"
	 viewBox="0 0 20 20" style="enable-background:new 0 0 20 20;" xml:space="preserve">
<style type="text/css">
	.st0{fill:#FFFFFF;}
</style>
<metadata>
	<sfw  xmlns="&ns_sfw;">
		<slices></slices>
		<sliceSourceBounds  bottomLeftOrigin="true" height="10.504" width="18" x="951" y="534.748"></sliceSourceBounds>
	</sfw>
</metadata>
<g>
	<path d="M15.307,15.206c-1.245-0.014-2.416-0.351-3.549-0.831c-0.502-0.213-0.995-0.448-1.476-0.704
		c-0.523-0.279-1.081-0.393-1.661-0.414c-1.044-0.038-2.032,0.216-2.986,0.619c-0.608,0.257-1.23,0.47-1.89,0.532
		c-0.785,0.073-1.525-0.043-2.107-0.64c-0.452-0.463-0.634-1.042-0.627-1.677c0.003-0.3,0.061-0.598,0.077-0.898
		c0.007-0.134-0.027-0.27-0.046-0.405c-0.094-0.651-0.027-1.29,0.199-1.901c0.736-1.994,2.098-3.341,4.154-3.94
		C6.169,4.72,6.962,4.71,7.762,4.803c0.333,0.039,0.674,0.019,1.011,0.028c1.719,0.043,3.418,0.238,5.083,0.68
		c1.114,0.296,2.184,0.7,3.135,1.37c0.927,0.653,1.607,1.489,1.896,2.608c0.137,0.528,0.154,1.059,0.025,1.593
		c-0.018,0.075-0.018,0.162-0.002,0.238c0.37,1.741-0.515,3.232-2.229,3.702c-0.444,0.122-0.911,0.155-1.368,0.229
		C15.312,15.237,15.309,15.221,15.307,15.206z M14.938,12.337c0.574,0.049,1.138,0.023,1.682-0.187
		c0.912-0.352,1.39-1.121,1.269-2.089c-0.085-0.683-0.409-1.256-0.883-1.747c-0.539-0.558-1.196-0.936-1.902-1.234
		c-1.375-0.58-2.826-0.848-4.297-1.016C9.79,5.948,8.769,5.894,7.746,5.906c-0.041,0-0.082-0.004-0.122-0.01
		c-0.592-0.089-1.182-0.08-1.765,0.06C4.301,6.33,3.204,7.283,2.493,8.696C2.194,9.29,2.01,9.923,2.115,10.603
		c0.069,0.449,0.285,0.795,0.747,0.911c0.219,0.055,0.455,0.069,0.681,0.059c0.562-0.025,1.086-0.212,1.6-0.429
		c1.175-0.495,2.388-0.798,3.674-0.717c0.657,0.041,1.291,0.173,1.878,0.49c1.067,0.575,2.172,1.056,3.364,1.31
		c0.218,0.046,0.439,0.075,0.659,0.112c-0.386-0.185-0.527-0.526-0.322-0.858c0.596-0.966,1.198-1.927,1.802-2.888
		c0.116-0.185,0.298-0.27,0.512-0.24c0.425,0.06,0.616,0.487,0.385,0.858c-0.569,0.916-1.144,1.829-1.711,2.746
		C15.274,12.132,15.154,12.281,14.938,12.337z M2.156,12.44c-0.008,0.316,0.277,0.701,0.652,0.805
		c0.227,0.063,0.473,0.087,0.708,0.08c0.568-0.018,1.099-0.204,1.617-0.423c1.194-0.504,2.426-0.813,3.734-0.723
		c0.636,0.043,1.245,0.182,1.821,0.474c0.559,0.284,1.121,0.565,1.702,0.798c1.1,0.442,2.231,0.761,3.439,0.633
		c0.516-0.055,0.998-0.208,1.409-0.539c0.245-0.197,0.431-0.439,0.526-0.719c-0.326,0.141-0.647,0.313-0.987,0.422
		c-1.018,0.325-2.046,0.246-3.07,0.017c-1.177-0.263-2.283-0.721-3.338-1.295c-0.606-0.33-1.25-0.464-1.926-0.465
		c-0.777-0.002-1.53,0.152-2.261,0.413c-0.527,0.189-1.045,0.404-1.578,0.574c-0.574,0.184-1.168,0.253-1.768,0.142
		C2.606,12.591,2.382,12.506,2.156,12.44z"/>
	<path class="st0" d="M14.938,12.337c0.216-0.056,0.336-0.206,0.445-0.381c0.568-0.917,1.142-1.829,1.711-2.746
		c0.23-0.371,0.04-0.798-0.385-0.858c-0.214-0.03-0.396,0.055-0.512,0.24c-0.604,0.961-1.206,1.922-1.802,2.888
		c-0.205,0.332-0.064,0.673,0.322,0.858c-0.22-0.037-0.441-0.066-0.659-0.112c-1.192-0.253-2.297-0.734-3.364-1.31
		c-0.587-0.317-1.221-0.448-1.878-0.49c-1.286-0.081-2.499,0.222-3.674,0.717c-0.514,0.216-1.038,0.404-1.6,0.429
		c-0.226,0.01-0.462-0.004-0.681-0.059c-0.461-0.116-0.677-0.462-0.747-0.911C2.01,9.923,2.194,9.29,2.493,8.696
		C3.204,7.283,4.301,6.33,5.859,5.956c0.583-0.14,1.173-0.149,1.765-0.06c0.04,0.006,0.081,0.011,0.122,0.01
		c1.024-0.012,2.044,0.042,3.061,0.158c1.472,0.168,2.923,0.436,4.297,1.016c0.706,0.298,1.363,0.676,1.902,1.234
		c0.474,0.491,0.798,1.064,0.883,1.747c0.121,0.968-0.357,1.737-1.269,2.089C16.076,12.361,15.512,12.386,14.938,12.337z
		 M6.225,6.553c-0.897,0-1.622,0.718-1.623,1.609C4.601,9.072,5.33,9.81,6.227,9.807c0.881-0.003,1.619-0.741,1.624-1.624
		C7.855,7.291,7.119,6.553,6.225,6.553z M10.89,10.52c0.226-0.004,0.376-0.11,0.487-0.287c0.584-0.937,1.169-1.872,1.752-2.809
		c0.184-0.295,0.121-0.624-0.147-0.793c-0.271-0.172-0.589-0.086-0.776,0.211c-0.231,0.367-0.461,0.736-0.691,1.104
		c-0.357,0.572-0.714,1.144-1.071,1.716c-0.118,0.189-0.132,0.385-0.021,0.58C10.528,10.427,10.691,10.518,10.89,10.52z
		 M12.702,11.599c0.194-0.002,0.346-0.085,0.448-0.248c0.602-0.961,1.203-1.923,1.799-2.888c0.049-0.079,0.079-0.18,0.085-0.273
		c0.018-0.248-0.145-0.462-0.391-0.54c-0.229-0.072-0.474,0.014-0.611,0.231c-0.393,0.622-0.781,1.247-1.17,1.871
		c-0.208,0.334-0.417,0.667-0.624,1.002c-0.114,0.185-0.122,0.379-0.015,0.567C12.325,11.505,12.487,11.602,12.702,11.599z"/>
	<path class="st0" d="M2.156,12.44c0.226,0.065,0.45,0.151,0.682,0.194c0.6,0.111,1.194,0.042,1.768-0.142
		c0.533-0.17,1.051-0.385,1.578-0.574c0.73-0.262,1.484-0.415,2.261-0.413c0.676,0.001,1.319,0.135,1.926,0.465
		c1.055,0.574,2.16,1.032,3.338,1.295c1.024,0.229,2.052,0.307,3.07-0.017c0.341-0.109,0.661-0.281,0.987-0.422
		c-0.095,0.28-0.281,0.522-0.526,0.719c-0.411,0.331-0.893,0.484-1.409,0.539c-1.208,0.128-2.339-0.191-3.439-0.633
		c-0.581-0.233-1.143-0.514-1.702-0.798c-0.576-0.292-1.185-0.431-1.821-0.474c-1.308-0.089-2.54,0.219-3.734,0.723
		c-0.518,0.219-1.049,0.405-1.617,0.423c-0.236,0.007-0.482-0.017-0.708-0.08C2.433,13.142,2.148,12.757,2.156,12.44z"/>
	<path d="M6.225,6.553c0.894,0,1.63,0.738,1.626,1.63C7.846,9.066,7.108,9.804,6.227,9.807C5.33,9.81,4.601,9.072,4.602,8.161
		C4.603,7.271,5.328,6.553,6.225,6.553z M6.753,8.173C6.752,7.875,6.515,7.639,6.219,7.641C5.925,7.643,5.684,7.886,5.687,8.179
		c0.002,0.296,0.24,0.529,0.538,0.528C6.526,8.706,6.753,8.476,6.753,8.173z"/>
	<path d="M10.89,10.52c-0.2-0.003-0.362-0.094-0.466-0.278c-0.111-0.196-0.097-0.391,0.021-0.58
		c0.356-0.572,0.714-1.144,1.071-1.716c0.23-0.368,0.46-0.737,0.691-1.104c0.187-0.297,0.505-0.383,0.776-0.211
		c0.267,0.169,0.33,0.498,0.147,0.793c-0.583,0.937-1.169,1.872-1.752,2.809C11.267,10.411,11.117,10.517,10.89,10.52z"/>
	<path d="M12.702,11.599c-0.215,0.003-0.376-0.094-0.479-0.276c-0.106-0.188-0.099-0.382,0.015-0.567
		c0.207-0.335,0.415-0.668,0.624-1.002c0.39-0.624,0.777-1.249,1.17-1.871c0.137-0.217,0.382-0.304,0.611-0.231
		c0.246,0.078,0.409,0.291,0.391,0.54c-0.007,0.093-0.037,0.194-0.085,0.273c-0.596,0.965-1.198,1.926-1.799,2.888
		C13.047,11.514,12.895,11.597,12.702,11.599z"/>
	<path class="st0" d="M6.753,8.173c0.001,0.302-0.227,0.532-0.527,0.533C5.926,8.708,5.689,8.475,5.687,8.179
		C5.684,7.886,5.925,7.643,6.219,7.641C6.515,7.639,6.752,7.875,6.753,8.173z"/>
</g>
</svg>
