<?xml version="1.0" encoding="utf-8"?>
<!-- Generator: Adobe Illustrator 26.0.1, SVG Export Plug-In . SVG Version: 6.00 Build 0)  -->
<svg version="1.1" id="레이어_1" xmlns="http://www.w3.org/2000/svg" xmlns:xlink="http://www.w3.org/1999/xlink" x="0px"
	 y="0px" viewBox="0 0 37 19" style="enable-background:new 0 0 37 19;" xml:space="preserve">
<style type="text/css">
	.st0{fill:#EE7500;}
	.st1{fill:#FFFFFF;}
	.st2{fill:#E7E7E7;}
	.st3{fill:#E1E1E1;}
</style>
<g id="Buttons_18_Check_Default" transform="translate(3773 5278)">
	<g id="Rectangle">
		<path class="st0" d="M-3748-5277.5h6c3.3,0,6,2.7,6,6v6c0,3.3-2.7,6-6,6h-6c-3.3,0-6-2.7-6-6v-6
			C-3754-5274.8-3751.3-5277.5-3748-5277.5z"/>
	</g>
	<g id="Icon_8_Check" transform="translate(5 6)">
		<g id="Path_2">
			<path class="st1" d="M-3751-5271.1c-0.2,0-0.3-0.1-0.4-0.2l-3-3c-0.2-0.2-0.2-0.6,0-0.8c0.2-0.2,0.6-0.2,0.8,0l2.5,2.6l4.6-5.3
				c0.2-0.3,0.6-0.3,0.8-0.1s0.3,0.6,0.1,0.8l-5,5.8C-3750.6-5271.1-3750.8-5271.1-3751-5271.1
				C-3751-5271.1-3751-5271.1-3751-5271.1z"/>
		</g>
	</g>
</g>
<g id="Buttons_18_Check_Default-2" transform="translate(3754 5278)">
	<g id="Rectangle-2">
		<path class="st1" d="M-3747.5-5277.5h6c3.3,0,6,2.7,6,6v6c0,3.3-2.7,6-6,6h-6c-3.3,0-6-2.7-6-6v-6
			C-3753.5-5274.8-3750.8-5277.5-3747.5-5277.5z"/>
		<path class="st2" d="M-3741.5-5259h-6c-3.6,0-6.5-2.9-6.5-6.5v-6c0-3.6,2.9-6.5,6.5-6.5h6c3.6,0,6.5,2.9,6.5,6.5v6
			C-3735-5261.9-3737.9-5259-3741.5-5259z M-3747.5-5277c-3,0-5.5,2.5-5.5,5.5v6c0,3,2.5,5.5,5.5,5.5h6c3,0,5.5-2.5,5.5-5.5v-6
			c0-3-2.5-5.5-5.5-5.5H-3747.5z"/>
	</g>
	<g id="Icon_8_Check-2" transform="translate(5 6)">
		<g id="Path_2-2">
			<path class="st3" d="M-3750.5-5271.1c-0.2,0-0.3-0.1-0.4-0.2l-3-3c-0.2-0.2-0.2-0.6,0-0.8c0.2-0.2,0.6-0.2,0.8,0l2.5,2.6l4.6-5.3
				c0.2-0.3,0.6-0.3,0.8-0.1c0.3,0.2,0.3,0.6,0.1,0.8l-5,5.8C-3750.1-5271.1-3750.3-5271.1-3750.5-5271.1
				C-3750.5-5271.1-3750.5-5271.1-3750.5-5271.1z"/>
		</g>
	</g>
</g>
</svg>
