<?xml version="1.0" encoding="utf-8"?>
<!-- Generator: Adobe Illustrator 25.4.1, SVG Export Plug-In . SVG Version: 6.00 Build 0)  -->
<!DOCTYPE svg PUBLIC "-//W3C//DTD SVG 1.1//EN" "http://www.w3.org/Graphics/SVG/1.1/DTD/svg11.dtd" [
	<!ENTITY ns_extend "http://ns.adobe.com/Extensibility/1.0/">
	<!ENTITY ns_ai "http://ns.adobe.com/AdobeIllustrator/10.0/">
	<!ENTITY ns_graphs "http://ns.adobe.com/Graphs/1.0/">
	<!ENTITY ns_vars "http://ns.adobe.com/Variables/1.0/">
	<!ENTITY ns_imrep "http://ns.adobe.com/ImageReplacement/1.0/">
	<!ENTITY ns_sfw "http://ns.adobe.com/SaveForWeb/1.0/">
	<!ENTITY ns_custom "http://ns.adobe.com/GenericCustomNamespace/1.0/">
	<!ENTITY ns_adobe_xpath "http://ns.adobe.com/XPath/1.0/">
]>
<svg version="1.1" id="레이어_1" xmlns:x="&ns_extend;" xmlns:i="&ns_ai;" xmlns:graph="&ns_graphs;"
	 xmlns="http://www.w3.org/2000/svg" xmlns:xlink="http://www.w3.org/1999/xlink" x="0px" y="0px" width="20px" height="20px"
	 viewBox="0 0 20 20" style="enable-background:new 0 0 20 20;" xml:space="preserve">
<metadata>
	<sfw  xmlns="&ns_sfw;">
		<slices></slices>
		<sliceSourceBounds  bottomLeftOrigin="true" height="18" width="16.829" x="952.368" y="532.272"></sliceSourceBounds>
	</sfw>
</metadata>
<g>
	<path d="M15.633,10.629c-0.153,0.841-0.42,1.586-0.816,2.278l-0.307,0.537l0.58,0.216c0.203,0.076,0.391,0.112,0.574,0.112
		c0.288,0,0.556-0.093,0.797-0.276c0.77-0.586,1.052-1.693,0.656-2.574c-0.221-0.493-0.593-0.66-0.866-0.713l-0.521-0.102
		L15.633,10.629z M16.637,11.136c0.293,0.654,0.076,1.507-0.496,1.942c-0.25,0.191-0.521,0.219-0.87,0.09
		c0.426-0.743,0.713-1.544,0.877-2.444C16.375,10.767,16.531,10.9,16.637,11.136z"/>
	<path d="M4.998,15.446c1.134,0.997,2.454,1.549,3.925,1.639c0.12,0.007,0.24,0.011,0.36,0.011c0.768,0,1.533-0.151,2.28-0.451
		c1.007-0.404,1.884-1.032,2.678-1.92c0.01,0.003,0.019,0.006,0.028,0.009c0.057,0.019,0.111,0.037,0.167,0.05
		c0.1,0.024,0.202,0.051,0.3,0.077c0.241,0.065,0.49,0.131,0.743,0.155c0.54,0.05,1.062-0.115,1.553-0.492
		c0.977-0.75,1.44-1.773,1.376-3.042c-0.052-1.036-0.598-2.249-1.973-2.547c-0.102-0.022-0.121-0.049-0.122-0.169
		c-0.007-0.594-0.036-0.631-0.614-0.796c-0.761-0.217-1.596-0.357-2.554-0.428L12.89,7.525c-0.976-0.073-1.984-0.148-2.979-0.17
		c-2.126-0.048-4.04,0.07-5.849,0.361c-0.391,0.063-0.78,0.169-1.156,0.271C2.783,8.019,2.661,8.053,2.538,8.085
		C2.346,8.135,2.23,8.288,2.212,8.517c-0.055,0.691-0.008,1.407,0.144,2.188C2.732,12.639,3.621,14.234,4.998,15.446z M16.325,9.449
		c1.367,0.296,1.54,1.652,1.56,2.061c0.055,1.101-0.328,1.951-1.172,2.599c-0.339,0.26-0.691,0.393-1.045,0.393
		c-0.046,0-0.093-0.002-0.139-0.007c-0.209-0.019-0.426-0.078-0.656-0.139l-0.005-0.001c-0.101-0.027-0.205-0.055-0.31-0.08
		c-0.033-0.008-0.074-0.021-0.121-0.037l-0.356-0.12l-0.231,0.258c-0.74,0.827-1.552,1.41-2.483,1.783
		c-0.683,0.274-1.385,0.413-2.085,0.413c-0.109,0-0.219-0.003-0.328-0.01c-1.351-0.083-2.566-0.591-3.61-1.51
		c-1.288-1.133-2.121-2.63-2.474-4.448C2.749,9.977,2.712,9.401,2.732,8.843c2.651,0.63,4.975,0.844,6.901,0.844
		c3.59,0,5.777-0.73,6.164-0.869C15.825,9.264,16.134,9.408,16.325,9.449z M4.145,8.233c1.527-0.245,3.117-0.364,4.86-0.364
		c0.292,0,0.593,0.003,0.894,0.01c0.981,0.022,1.983,0.097,2.952,0.169l0.256,0.019c0.823,0.061,1.539,0.183,2.202,0.354
		C14.05,8.796,9.63,9.838,3.291,8.427C3.576,8.351,3.864,8.278,4.145,8.233z"/>
	<path d="M17.351,17.276c-1.971,0.005-3.974,0.005-5.912,0.004c-0.588,0-1.176,0-1.764,0H7.473c-1.835,0-3.671,0-5.506,0
		c-0.148,0-0.251,0.037-0.314,0.113c-0.063,0.076-0.082,0.183-0.056,0.327c0.061,0.349,0.319,0.52,0.587,0.652
		c0.421,0.208,0.866,0.305,1.403,0.386c1.005,0.153,2.096,0.23,3.336,0.235C7.96,18.998,8.9,19,9.775,19
		c0.924,0,1.773-0.002,2.583-0.007c1.492-0.009,2.63-0.1,3.692-0.297c0.419-0.077,0.861-0.182,1.26-0.419
		c0.155-0.093,0.342-0.23,0.412-0.468c0.034-0.118,0.07-0.289-0.019-0.407C17.616,17.288,17.46,17.275,17.351,17.276z M17.04,17.826
		c-0.327,0.195-0.715,0.286-1.086,0.354c-1.03,0.19-2.14,0.279-3.6,0.288c-0.816,0.005-1.66,0.007-2.58,0.007
		c-0.872,0-1.804-0.002-2.85-0.007c-1.214-0.005-2.28-0.08-3.26-0.229c-0.489-0.074-0.889-0.16-1.25-0.338
		c-0.074-0.036-0.129-0.068-0.171-0.097c1.334,0,7.431,0,7.431,0s2.93,0.001,3.52,0.001c1.07,0,2.461,0,3.884-0.004
		C17.067,17.809,17.054,17.818,17.04,17.826z"/>
	<path d="M10.421,6.944c0.016,0.003,0.031,0.004,0.047,0.004c0.067,0,0.133-0.023,0.191-0.065h0c0.083-0.062,0.196-0.206,0.017-0.48
		c-0.045-0.07-0.094-0.152-0.113-0.232c-0.055-0.234-0.006-0.487,0.147-0.752c0.239-0.415,0.516-0.811,0.729-1.11
		c0.395-0.552,0.587-1.063,0.604-1.61l0-0.003l0-0.003c-0.017-0.591-0.24-1.115-0.663-1.558C11.273,1.024,11.174,1,11.111,1
		c0,0-0.001,0-0.001,0c-0.078,0-0.151,0.034-0.213,0.097c-0.11,0.114-0.099,0.263,0.032,0.446c0.094,0.131,0.155,0.248,0.186,0.358
		c0.081,0.291,0.009,0.58-0.225,0.909c-0.156,0.218-0.348,0.42-0.533,0.615l-0.049,0.052c-0.459,0.483-0.69,0.996-0.706,1.569
		c-0.016,0.598,0.17,1.163,0.568,1.728C10.238,6.87,10.325,6.929,10.421,6.944z M10.126,5.059c0.012-0.443,0.19-0.832,0.561-1.222
		l0.049-0.052c0.198-0.208,0.403-0.423,0.58-0.672c0.065-0.092,0.122-0.183,0.169-0.273c0.005-0.01,0.021-0.006,0.02,0.006
		c-0.045,0.382-0.204,0.753-0.494,1.157c-0.221,0.308-0.507,0.718-0.758,1.154c-0.031,0.054-0.059,0.107-0.084,0.161
		c-0.008,0.018-0.035,0.013-0.036-0.006C10.127,5.228,10.124,5.144,10.126,5.059z"/>
	<path d="M7.699,5.38C7.68,5.789,7.809,6.189,8.071,6.537C8.269,6.8,8.527,6.981,8.838,7.077C8.89,7.093,8.937,7.1,8.978,7.1
		c0.128,0,0.206-0.066,0.252-0.131C9.353,6.793,9.249,6.631,9.209,6.57L9.191,6.541C9.135,6.456,9.078,6.367,9.058,6.281
		c-0.063-0.28-0.13-0.786-0.145-0.968c0,0,0,0,0-0.001l-0.001-0.08c-0.005-0.074-0.007-0.15-0.009-0.224
		c-0.005-0.166-0.01-0.337-0.043-0.504C8.678,3.59,7.88,3.11,7.194,2.965c-0.107-0.023-0.258,0.06-0.317,0.146
		c-0.131,0.192,0.028,0.37,0.08,0.428C7.494,4.139,7.73,4.724,7.699,5.38z M7.829,3.81c0.249,0.187,0.448,0.45,0.517,0.798
		C8.362,4.687,8.37,4.774,8.374,4.866L8.39,5.356C8.403,5.512,8.453,5.91,8.511,6.221C8.492,6.229,8.514,6.22,8.495,6.228
		C8.304,5.977,8.21,5.692,8.223,5.404c0.026-0.556-0.108-1.079-0.407-1.583C7.812,3.813,7.821,3.804,7.829,3.81z"/>
</g>
</svg>
