<?xml version="1.0" encoding="utf-8"?>
<!-- Generator: Adobe Illustrator 25.4.1, SVG Export Plug-In . SVG Version: 6.00 Build 0)  -->
<!DOCTYPE svg PUBLIC "-//W3C//DTD SVG 1.1//EN" "http://www.w3.org/Graphics/SVG/1.1/DTD/svg11.dtd" [
	<!ENTITY ns_extend "http://ns.adobe.com/Extensibility/1.0/">
	<!ENTITY ns_ai "http://ns.adobe.com/AdobeIllustrator/10.0/">
	<!ENTITY ns_graphs "http://ns.adobe.com/Graphs/1.0/">
	<!ENTITY ns_vars "http://ns.adobe.com/Variables/1.0/">
	<!ENTITY ns_imrep "http://ns.adobe.com/ImageReplacement/1.0/">
	<!ENTITY ns_sfw "http://ns.adobe.com/SaveForWeb/1.0/">
	<!ENTITY ns_custom "http://ns.adobe.com/GenericCustomNamespace/1.0/">
	<!ENTITY ns_adobe_xpath "http://ns.adobe.com/XPath/1.0/">
]>
<svg version="1.1" id="레이어_1" xmlns:x="&ns_extend;" xmlns:i="&ns_ai;" xmlns:graph="&ns_graphs;"
	 xmlns="http://www.w3.org/2000/svg" xmlns:xlink="http://www.w3.org/1999/xlink" x="0px" y="0px" width="20px" height="20px"
	 viewBox="0 0 20 20" style="enable-background:new 0 0 20 20;" xml:space="preserve">
<metadata>
	<sfw  xmlns="&ns_sfw;">
		<slices></slices>
		<sliceSourceBounds  bottomLeftOrigin="true" height="15.851" width="18" x="951" y="532.075"></sliceSourceBounds>
	</sfw>
</metadata>
<g>
	<path d="M18.869,17.26c-0.301-0.299-0.605-0.606-0.899-0.902c-0.22-0.222-0.439-0.443-0.66-0.664
		c-0.05-0.05-0.069-0.099-0.068-0.179c0.003-0.991,0.002-1.998,0.002-2.973l0-0.84c0.04-0.009,0.077-0.017,0.115-0.025
		c0.953-0.207,1.64-1.06,1.634-2.029c-0.004-0.554-0.192-1.052-0.42-1.599c-0.285-0.684-0.6-1.368-0.906-2.029
		c-0.142-0.308-0.289-0.626-0.431-0.94c-0.029-0.064-0.118-0.26-0.346-0.269c-0.164-0.006-0.288,0.082-0.372,0.261
		c-0.079,0.169-0.162,0.34-0.243,0.505c-0.1,0.205-0.203,0.418-0.3,0.629c-0.375,0.817-0.802,1.772-1.108,2.768
		c-0.278,0.907-0.008,1.777,0.723,2.33c0.261,0.197,0.567,0.331,0.909,0.398v3.03c-0.041-0.051-0.081-0.101-0.119-0.151
		c-1.117-1.434-1.959-2.808-2.574-4.2c-0.091-0.205-0.229-0.297-0.449-0.297c-0.001,0-0.002,0-0.002,0
		c-1.106,0.003-2.231,0.003-3.32,0.003l-1.105,0V8.963c0.021-0.006,0.042-0.011,0.062-0.015c0.405-0.083,0.753-0.265,1.033-0.54
		c0.616-0.606,0.794-1.344,0.531-2.192c-0.422-1.361-1.032-2.634-1.673-3.927c-0.055-0.11-0.204-0.19-0.317-0.209
		c-0.103-0.017-0.25,0.01-0.363,0.238C7.692,3.358,7.158,4.471,6.75,5.63L6.744,5.646C6.606,6.038,6.463,6.444,6.445,6.857
		C6.409,7.686,6.804,8.342,7.587,8.756c0.142,0.075,0.297,0.125,0.447,0.173c0.046,0.015,0.092,0.03,0.138,0.045v1.113H8.102
		c-0.14,0-0.28,0-0.419,0c-0.358,0-0.728,0.001-1.093-0.002c-0.188-0.001-0.319,0.083-0.392,0.251
		c-0.464,1.069-1.087,2.154-1.904,3.316c-0.134,0.191-0.276,0.383-0.413,0.568c-0.016,0.022-0.032,0.043-0.048,0.065V12.04
		c0-0.103,0-0.191,0.015-0.21c0.015-0.019,0.101-0.039,0.201-0.063c0.994-0.234,1.763-1.118,1.871-2.151
		c0.043-0.408-0.04-0.781-0.177-1.216c-0.509-1.618-1.24-3.133-1.946-4.597C3.725,3.655,3.601,3.578,3.444,3.584
		C3.297,3.59,3.186,3.671,3.113,3.823C2.566,4.962,1.887,6.38,1.386,7.806C1.223,8.273,1.071,8.73,1.015,9.193
		c-0.117,0.965,0.443,1.945,1.36,2.385c0.17,0.082,0.347,0.138,0.535,0.197c0.064,0.02,0.129,0.041,0.195,0.063l0,0.299
		c0.001,0.991,0.001,2.015-0.001,3.022c0,0.025-0.018,0.066-0.037,0.087c-0.541,0.571-1.094,1.15-1.629,1.71l-0.253,0.265
		c-0.006,0.006-0.016,0.014-0.026,0.022c-0.03,0.024-0.072,0.058-0.089,0.112c-0.004,0.012-0.008,0.024-0.012,0.036
		c-0.029,0.088-0.064,0.198-0.024,0.291c0.045,0.104,0.159,0.168,0.261,0.221c0.036,0.018,0.073,0.023,0.109,0.023
		c0.023,0,0.045-0.002,0.065-0.004c0.016-0.001,0.032-0.003,0.047-0.003l16.993,0c0.011,0,0.023,0,0.035,0
		c0.022,0,0.043-0.001,0.065,0c0.177,0.007,0.316-0.08,0.368-0.233C19.03,17.53,18.992,17.383,18.869,17.26z M15.701,10.365
		c-0.151-0.233-0.298-0.619-0.142-1.138c0.273-0.903,0.663-1.773,1.007-2.54c0.084-0.188,0.174-0.378,0.261-0.562
		c0.015-0.031,0.029-0.062,0.044-0.094c0.097,0.219,0.198,0.437,0.295,0.65c0.34,0.743,0.691,1.511,0.948,2.3
		c0.058,0.178,0.094,0.315,0.118,0.444c0.128,0.698-0.292,1.332-0.988,1.522c0-0.011,0-0.021,0-0.032
		c-0.001-0.151-0.001-0.307,0.003-0.459c0.006-0.006,0.016-0.015,0.023-0.018c0.106-0.053,0.217-0.103,0.324-0.151
		c0.048-0.022,0.095-0.043,0.143-0.065c0.249-0.115,0.341-0.306,0.248-0.51c-0.046-0.101-0.192-0.317-0.557-0.154
		c-0.059,0.026-0.118,0.052-0.182,0.081c0-0.075,0-0.145-0.001-0.215c-0.003-0.226-0.154-0.392-0.36-0.395
		c-0.206-0.003-0.367,0.164-0.371,0.388c-0.001,0.071-0.001,0.142-0.001,0.22c-0.07-0.031-0.137-0.06-0.204-0.089
		c-0.232-0.102-0.436-0.042-0.532,0.158c-0.043,0.09-0.05,0.183-0.019,0.269c0.036,0.101,0.12,0.184,0.244,0.241
		c0.06,0.028,0.121,0.055,0.181,0.082c0.099,0.044,0.202,0.09,0.3,0.139c0.009,0.004,0.021,0.017,0.027,0.025
		c0.005,0.149,0.005,0.302,0.004,0.45c0,0.013,0,0.026,0,0.039C16.199,10.874,15.889,10.654,15.701,10.365z M7.548,7.828
		C7.19,7.446,7.095,6.996,7.258,6.453c0.264-0.881,0.648-1.734,1.02-2.558l0.04-0.089C8.388,3.65,8.462,3.495,8.54,3.33
		C8.548,3.313,8.556,3.297,8.564,3.28c0.046,0.1,0.091,0.198,0.137,0.296C8.869,3.937,9.027,4.278,9.17,4.631
		c0.227,0.561,0.49,1.227,0.714,1.916c0.138,0.423,0.031,0.766-0.083,0.98C9.629,7.851,9.318,8.102,8.971,8.2
		C8.96,8.204,8.947,8.207,8.935,8.21c0-0.016,0-0.032,0-0.048C8.934,8.01,8.933,7.868,8.939,7.727
		c0.005-0.011,0.021-0.029,0.03-0.034C9.064,7.645,9.163,7.6,9.259,7.557c0.068-0.031,0.136-0.061,0.203-0.093
		c0.214-0.102,0.296-0.294,0.21-0.488c-0.088-0.2-0.295-0.271-0.516-0.177C9.085,6.828,9.013,6.86,8.938,6.894
		c0-0.069,0-0.135-0.001-0.202C8.932,6.456,8.779,6.289,8.566,6.288c-0.001,0-0.002,0-0.003,0c-0.209,0-0.368,0.167-0.377,0.397
		C8.184,6.754,8.184,6.822,8.185,6.894C8.119,6.865,8.059,6.837,7.998,6.81C7.866,6.752,7.741,6.742,7.639,6.783
		C7.554,6.816,7.489,6.882,7.45,6.973C7.364,7.177,7.454,7.37,7.687,7.478c0.055,0.025,0.11,0.05,0.165,0.074
		c0.1,0.045,0.203,0.091,0.301,0.14c0.012,0.006,0.029,0.025,0.034,0.035c0.006,0.14,0.005,0.281,0.004,0.431
		c0,0.016,0,0.033,0,0.049C7.944,8.151,7.733,8.026,7.548,7.828z M3.001,11.04c-0.762-0.209-1.303-0.933-1.258-1.683
		c0.02-0.343,0.13-0.692,0.24-1.02c0.401-1.191,0.912-2.312,1.49-3.54C3.492,4.835,3.51,4.874,3.527,4.912
		c0.097,0.208,0.189,0.405,0.279,0.605c0.481,1.062,0.94,2.106,1.282,3.197c0.188,0.599,0.148,1.09-0.125,1.545
		c-0.249,0.416-0.708,0.739-1.125,0.803c0-0.016,0-0.032,0-0.047c-0.001-0.147-0.001-0.3,0.004-0.448
		c0.006-0.008,0.019-0.02,0.03-0.025c0.102-0.051,0.209-0.099,0.312-0.145c0.052-0.023,0.104-0.047,0.155-0.07
		c0.242-0.112,0.334-0.309,0.24-0.515C4.486,9.606,4.282,9.548,4.034,9.655C3.969,9.683,3.905,9.711,3.838,9.741
		c0.001-0.077,0.001-0.15-0.002-0.224C3.829,9.293,3.67,9.133,3.459,9.137C3.255,9.141,3.11,9.297,3.107,9.518
		C3.105,9.589,3.105,9.66,3.104,9.731l0,0.011C3.036,9.711,2.967,9.68,2.899,9.65C2.664,9.548,2.461,9.609,2.368,9.809
		c-0.095,0.204-0.009,0.399,0.225,0.508l0.075,0.035c0.13,0.061,0.264,0.124,0.399,0.181c0.043,0.018,0.043,0.023,0.042,0.057
		c-0.005,0.134-0.004,0.268-0.003,0.409c0,0.021,0,0.042,0,0.063C3.069,11.056,3.034,11.049,3.001,11.04z M5.069,17.176
		c0.586-0.639,1.075-1.306,1.486-2.031c0.421,0.737,0.91,1.405,1.488,2.031H5.069z M10.089,17.186c-0.335,0-0.651,0.001-0.974-0.003
		c-0.009,0-0.04-0.014-0.07-0.043c-0.934-0.9-1.631-1.857-2.129-2.925c-0.052-0.112-0.145-0.26-0.348-0.264
		c-0.003,0-0.005,0-0.008,0c-0.209,0-0.304,0.152-0.358,0.267c-0.493,1.059-1.189,2.016-2.13,2.925
		c-0.025,0.024-0.058,0.039-0.07,0.039c-0.513,0.003-1.022,0.003-1.56,0.003l-0.164,0c1.803-1.815,3.206-3.731,4.279-5.847
		c0.89,1.786,2.044,3.442,3.524,5.06l0.016,0.017c0.105,0.114,0.153,0.174,0.111,0.291c-0.035,0.097-0.019,0.204-0.004,0.298
		l0.004,0.029c0.008,0.052,0.021,0.101,0.037,0.152L10.089,17.186z M14.894,16.867c-0.011,0.183-0.155,0.317-0.341,0.318
		c-0.389,0.002-0.784,0.002-1.167,0.001c-0.159,0-0.318,0-0.477,0l-0.445,0c-0.39,0-0.779,0-1.169,0
		c-0.205,0-0.352-0.125-0.368-0.31c-0.015-0.18,0.113-0.323,0.318-0.356c0.159-0.026,0.269-0.116,0.325-0.268
		c0.076-0.206,0.169-0.27,0.382-0.26c0.14,0.006,0.252-0.04,0.35-0.143c0.174-0.184,0.384-0.282,0.607-0.284
		c0.002,0,0.003,0,0.005,0c0.221,0,0.44,0.1,0.618,0.282c0.077,0.079,0.206,0.135,0.322,0.139c0.247,0.009,0.33,0.064,0.406,0.268
		c0.058,0.156,0.169,0.243,0.341,0.268C14.787,16.548,14.905,16.687,14.894,16.867z M15.591,17.175
		c0.002-0.033,0.005-0.066,0.007-0.099c0.012-0.153,0.024-0.311-0.004-0.465c-0.061-0.337-0.281-0.598-0.637-0.756
		c-0.047-0.021-0.096-0.063-0.128-0.109c-0.201-0.293-0.476-0.459-0.818-0.492c-0.024-0.002-0.059-0.019-0.084-0.042
		c-0.578-0.497-1.397-0.513-1.99-0.038c-0.069,0.055-0.127,0.08-0.21,0.091c-0.292,0.037-0.526,0.176-0.677,0.401
		c-0.081,0.121-0.171,0.195-0.294,0.241c-0.033,0.013-0.062,0.03-0.091,0.048c-1.483-1.618-2.645-3.3-3.546-5.136l0.983,0
		c1.644,0,3.343,0,5.015-0.002c0,0,0.001,0,0.001,0c0.065,0,0.076,0.006,0.099,0.056c0.744,1.624,1.76,3.203,3.018,4.694
		c0.341,0.404,0.71,0.795,1.067,1.172c0.135,0.143,0.273,0.289,0.409,0.436H15.591z"/>
	<path d="M13.348,6.957c0.003,0,0.007,0,0.01,0c0.443,0,0.86-0.171,1.173-0.481c0.317-0.314,0.492-0.733,0.493-1.182
		c0.003-0.918-0.737-1.67-1.65-1.677c-0.004,0-0.008,0-0.013,0c-0.435,0-0.846,0.17-1.16,0.481
		c-0.319,0.315-0.495,0.733-0.496,1.176C11.703,6.197,12.44,6.951,13.348,6.957z M12.718,4.618c0.174-0.172,0.402-0.266,0.642-0.266
		c0.004,0,0.008,0,0.011,0c0.516,0.006,0.921,0.418,0.921,0.936c0,0.253-0.1,0.491-0.282,0.67c-0.177,0.175-0.408,0.27-0.652,0.267
		c-0.508-0.006-0.921-0.426-0.921-0.938C12.438,5.034,12.537,4.796,12.718,4.618z"/>
</g>
</svg>
