<?xml version="1.0" encoding="utf-8"?>
<!-- Generator: Adobe Illustrator 25.4.1, SVG Export Plug-In . SVG Version: 6.00 Build 0)  -->
<!DOCTYPE svg PUBLIC "-//W3C//DTD SVG 1.1//EN" "http://www.w3.org/Graphics/SVG/1.1/DTD/svg11.dtd" [
	<!ENTITY ns_extend "http://ns.adobe.com/Extensibility/1.0/">
	<!ENTITY ns_ai "http://ns.adobe.com/AdobeIllustrator/10.0/">
	<!ENTITY ns_graphs "http://ns.adobe.com/Graphs/1.0/">
	<!ENTITY ns_vars "http://ns.adobe.com/Variables/1.0/">
	<!ENTITY ns_imrep "http://ns.adobe.com/ImageReplacement/1.0/">
	<!ENTITY ns_sfw "http://ns.adobe.com/SaveForWeb/1.0/">
	<!ENTITY ns_custom "http://ns.adobe.com/GenericCustomNamespace/1.0/">
	<!ENTITY ns_adobe_xpath "http://ns.adobe.com/XPath/1.0/">
]>
<svg version="1.1" id="레이어_1" xmlns:x="&ns_extend;" xmlns:i="&ns_ai;" xmlns:graph="&ns_graphs;"
	 xmlns="http://www.w3.org/2000/svg" xmlns:xlink="http://www.w3.org/1999/xlink" x="0px" y="0px" width="20px" height="20px"
	 viewBox="0 0 20 20" style="enable-background:new 0 0 20 20;" xml:space="preserve">
<style type="text/css">
	.st0{fill:#FFFFFF;}
</style>
<metadata>
	<sfw  xmlns="&ns_sfw;">
		<slices></slices>
		<sliceSourceBounds  bottomLeftOrigin="true" height="18" width="16.342" x="951.829" y="531"></sliceSourceBounds>
	</sfw>
</metadata>
<g>
	<path d="M6.414,8.51C6.098,8.567,5.811,8.646,5.521,8.666C4.802,8.714,4.198,8.431,3.679,7.953C2.99,7.318,2.56,6.516,2.239,5.65
		C1.974,4.936,1.803,4.199,1.832,3.433c0.012-0.317,0.06-0.641,0.15-0.944c0.264-0.886,0.982-1.387,1.905-1.371
		c0.546,0.01,1.057,0.159,1.546,0.389c1.112,0.522,2.032,1.279,2.746,2.28c0.308,0.432,0.537,0.903,0.615,1.434
		c0.099,0.671-0.087,1.27-0.484,1.807c-0.08,0.108-0.085,0.187-0.014,0.29c0.143,0.206,0.156,0.424,0.073,0.66
		C8.352,8.033,8.39,8.126,8.43,8.181c1.071,1.469,2.147,2.935,3.221,4.401c0.152,0.207,0.304,0.414,0.459,0.626
		c0.429-0.155,0.734-0.001,1,0.343c0.852,1.101,1.719,2.192,2.58,3.286c0.208,0.264,0.29,0.555,0.206,0.885
		c-0.058,0.228-0.186,0.409-0.377,0.545c-0.24,0.171-0.479,0.342-0.718,0.513c-0.517,0.369-1.074,0.27-1.432-0.259
		c-0.486-0.718-0.969-1.438-1.453-2.156c-0.32-0.475-0.639-0.95-0.961-1.424c-0.192-0.283-0.206-0.57-0.013-0.852
		c0.066-0.096,0.01-0.142-0.034-0.203c-0.956-1.312-1.913-2.624-2.869-3.936C7.797,9.618,7.558,9.285,7.312,8.957
		C7.278,8.912,7.202,8.86,7.156,8.869C6.845,8.925,6.628,8.788,6.45,8.554C6.435,8.534,6.417,8.514,6.414,8.51z M3.087,3.509
		c0.041,0.95,0.301,1.838,0.773,2.662c0.15,0.263,0.399,0.336,0.638,0.195c0.226-0.133,0.28-0.388,0.132-0.642
		C4.196,4.978,3.957,4.18,3.973,3.311C3.977,3.058,3.79,2.87,3.543,2.863c-0.245-0.007-0.44,0.173-0.455,0.425
		C3.083,3.361,3.087,3.435,3.087,3.509z"/>
	<path d="M11.091,10.314c-0.281-0.389-0.553-0.767-0.829-1.15c0.269-0.367,0.532-0.727,0.798-1.085
		c0.056-0.075,0.084-0.137,0.051-0.241c-0.063-0.193-0.03-0.387,0.085-0.557c0.119-0.177,0.119-0.341,0.006-0.527
		c-0.228-0.378-0.442-0.763-0.657-1.149c-0.269-0.484-0.245-0.966,0.074-1.41c0.647-0.901,1.307-1.791,1.97-2.681
		c0.432-0.58,1.216-0.682,1.825-0.242c0.886,0.64,1.769,1.284,2.653,1.927c0.179,0.13,0.358,0.258,0.536,0.389
		c0.623,0.462,0.752,1.24,0.297,1.866c-0.645,0.889-1.293,1.776-1.954,2.653c-0.351,0.465-0.826,0.645-1.407,0.513
		c-0.43-0.098-0.862-0.188-1.292-0.285c-0.161-0.036-0.291,0.004-0.394,0.13c-0.144,0.176-0.318,0.283-0.554,0.285
		c-0.048,0-0.108,0.055-0.142,0.101c-0.323,0.441-0.642,0.884-0.963,1.327C11.164,10.221,11.132,10.261,11.091,10.314z
		 M15.503,3.777c-0.021-0.189-0.148-0.368-0.322-0.432c-0.174-0.064-0.359-0.019-0.484,0.132c-0.1,0.121-0.189,0.252-0.281,0.38
		c-0.432,0.595-0.866,1.19-1.295,1.787c-0.163,0.226-0.111,0.48,0.119,0.646c0.182,0.131,0.449,0.089,0.588-0.102
		c0.523-0.718,1.045-1.436,1.563-2.158C15.443,3.957,15.466,3.862,15.503,3.777z M14.215,2.83c-0.023-0.194-0.146-0.367-0.323-0.432
		c-0.184-0.067-0.378-0.015-0.504,0.157c-0.527,0.72-1.053,1.442-1.569,2.17c-0.057,0.08-0.079,0.21-0.066,0.31
		c0.023,0.192,0.15,0.324,0.341,0.369c0.212,0.051,0.367-0.055,0.486-0.217c0.507-0.696,1.014-1.392,1.516-2.092
		C14.151,3.018,14.176,2.919,14.215,2.83z M14.315,6.845c0.018,0.194,0.153,0.383,0.329,0.442c0.187,0.064,0.379-0.003,0.521-0.197
		c0.511-0.699,1.02-1.4,1.527-2.103c0.16-0.221,0.116-0.484-0.097-0.638c-0.207-0.149-0.462-0.108-0.623,0.112
		c-0.517,0.708-1.032,1.417-1.543,2.13C14.375,6.665,14.352,6.76,14.315,6.845z"/>
	<path d="M8.33,11.834c0.272,0.376,0.529,0.728,0.778,1.086c0.024,0.034,0.012,0.12-0.016,0.159
		c-0.191,0.277-0.389,0.549-0.589,0.819c-0.052,0.07-0.07,0.119-0.017,0.206c0.172,0.282,0.162,0.57-0.026,0.844
		c-0.826,1.204-1.652,2.409-2.483,3.61c-0.324,0.47-0.887,0.562-1.355,0.229c-0.253-0.18-0.503-0.363-0.75-0.549
		c-0.448-0.338-0.529-0.925-0.181-1.367c0.9-1.144,1.805-2.284,2.71-3.425c0.236-0.298,0.543-0.352,0.91-0.237
		C7.643,12.761,7.98,12.308,8.33,11.834z"/>
	<path class="st0" d="M3.087,3.509c0-0.074-0.004-0.147,0.001-0.221c0.015-0.252,0.21-0.432,0.455-0.425
		C3.79,2.87,3.977,3.058,3.973,3.311C3.957,4.18,4.196,4.978,4.63,5.724c0.148,0.254,0.094,0.509-0.132,0.642
		C4.259,6.507,4.01,6.434,3.86,6.171C3.388,5.346,3.128,4.459,3.087,3.509z"/>
	<path class="st0" d="M15.503,3.777c-0.037,0.085-0.06,0.18-0.113,0.254c-0.518,0.721-1.039,1.44-1.563,2.158
		c-0.139,0.191-0.406,0.233-0.588,0.102c-0.231-0.166-0.282-0.42-0.119-0.646c0.429-0.597,0.863-1.192,1.295-1.787
		c0.093-0.128,0.181-0.259,0.281-0.38c0.125-0.151,0.31-0.196,0.484-0.132C15.355,3.409,15.482,3.588,15.503,3.777z"/>
	<path class="st0" d="M14.215,2.83c-0.039,0.089-0.065,0.188-0.12,0.266c-0.502,0.7-1.008,1.396-1.516,2.092
		c-0.119,0.163-0.274,0.268-0.486,0.217c-0.19-0.046-0.317-0.177-0.341-0.369c-0.012-0.101,0.009-0.23,0.066-0.31
		c0.516-0.728,1.042-1.45,1.569-2.17c0.126-0.172,0.32-0.224,0.504-0.157C14.069,2.463,14.192,2.636,14.215,2.83z"/>
	<path class="st0" d="M14.315,6.845c0.037-0.085,0.059-0.18,0.112-0.254c0.511-0.712,1.026-1.422,1.543-2.13
		c0.161-0.22,0.415-0.261,0.623-0.112c0.213,0.153,0.257,0.417,0.097,0.638c-0.507,0.702-1.016,1.403-1.527,2.103
		c-0.141,0.194-0.333,0.261-0.521,0.197C14.468,7.228,14.333,7.039,14.315,6.845z"/>
</g>
</svg>
