<?xml version="1.0" encoding="utf-8"?>
<!-- Generator: Adobe Illustrator 25.4.1, SVG Export Plug-In . SVG Version: 6.00 Build 0)  -->
<!DOCTYPE svg PUBLIC "-//W3C//DTD SVG 1.1//EN" "http://www.w3.org/Graphics/SVG/1.1/DTD/svg11.dtd" [
	<!ENTITY ns_extend "http://ns.adobe.com/Extensibility/1.0/">
	<!ENTITY ns_ai "http://ns.adobe.com/AdobeIllustrator/10.0/">
	<!ENTITY ns_graphs "http://ns.adobe.com/Graphs/1.0/">
	<!ENTITY ns_vars "http://ns.adobe.com/Variables/1.0/">
	<!ENTITY ns_imrep "http://ns.adobe.com/ImageReplacement/1.0/">
	<!ENTITY ns_sfw "http://ns.adobe.com/SaveForWeb/1.0/">
	<!ENTITY ns_custom "http://ns.adobe.com/GenericCustomNamespace/1.0/">
	<!ENTITY ns_adobe_xpath "http://ns.adobe.com/XPath/1.0/">
]>
<svg version="1.1" id="레이어_1" xmlns:x="&ns_extend;" xmlns:i="&ns_ai;" xmlns:graph="&ns_graphs;"
	 xmlns="http://www.w3.org/2000/svg" xmlns:xlink="http://www.w3.org/1999/xlink" x="0px" y="0px" width="20px" height="20px"
	 viewBox="0 0 20 20" style="enable-background:new 0 0 20 20;" xml:space="preserve">
<style type="text/css">
	.st0{fill:#FFFFFF;}
</style>
<metadata>
	<sfw  xmlns="&ns_sfw;">
		<slices></slices>
		<sliceSourceBounds  bottomLeftOrigin="true" height="17.837" width="18" x="951" y="531.081"></sliceSourceBounds>
	</sfw>
</metadata>
<g>
	<path d="M10.001,14.793c0.44,0,0.846,0.005,1.252-0.004c0.079-0.002,0.164-0.046,0.235-0.089c1.509-0.921,3.019-1.84,4.521-2.772
		c0.338-0.21,0.675-0.241,1.023-0.085c0.815,0.367,1.44,0.949,1.85,1.746c0.227,0.442,0.136,0.906-0.338,1.22
		c-1.818,1.205-3.615,2.442-5.418,3.669c-0.131,0.089-0.239,0.218-0.376,0.295c-0.126,0.071-0.277,0.138-0.418,0.139
		c-1.917,0.009-3.834,0.006-5.752,0.006c-0.402,0-0.585-0.178-0.585-0.581c-0.002-1.207-0.001-2.413-0.001-3.62
		c0-0.453-0.003-0.907,0.001-1.36c0.003-0.38,0.186-0.563,0.563-0.564c0.959-0.002,1.917-0.002,2.876,0
		c0.373,0.001,0.566,0.193,0.567,0.564C10.002,13.829,10.001,14.3,10.001,14.793z M17.962,13.966
		c-0.293-0.464-0.669-0.822-1.117-1.11c-0.153-0.098-0.284-0.102-0.451,0.002c-1.506,0.939-3.016,1.871-4.532,2.795
		c-0.139,0.084-0.32,0.133-0.483,0.137c-0.612,0.016-1.225,0.007-1.837,0.006c-0.348-0.001-0.544-0.19-0.549-0.54
		c-0.006-0.413-0.002-0.827-0.002-1.24c0-0.07,0-0.14,0-0.205c-0.681,0-1.33,0-1.976,0c0,1.373,0,2.731,0,4.106
		c0.082,0,0.154,0,0.226,0c1.498,0,2.996-0.009,4.494,0.007c0.323,0.003,0.565-0.088,0.83-0.275c1.375-0.97,2.769-1.913,4.158-2.862
		C17.128,14.512,17.54,14.246,17.962,13.966z"/>
	<path d="M1,15.843c0-0.813-0.001-1.626,0-2.439c0.001-0.445,0.168-0.611,0.616-0.611c0.938-0.001,1.877-0.001,2.815,0
		c0.387,0.001,0.575,0.189,0.575,0.575c0.001,1.66,0.001,3.319,0,4.979c0,0.383-0.193,0.571-0.579,0.571c-0.945,0-1.89,0-2.835,0
		c-0.414,0-0.59-0.175-0.591-0.595C0.999,17.496,1,16.67,1,15.843z M3.98,17.909c0-1.378,0-2.74,0-4.097c-0.665,0-1.314,0-1.959,0
		c0,1.373,0,2.731,0,4.097C2.676,17.909,3.32,17.909,3.98,17.909z"/>
	<path d="M12.089,1.081c2.485,0.045,4.714,0.939,6.568,2.746c0.16,0.156,0.241,0.333,0.171,0.556
		c-0.065,0.204-0.212,0.318-0.419,0.351c-0.205,0.032-0.353-0.075-0.491-0.21c-0.709-0.697-1.516-1.251-2.42-1.665
		c-1.302-0.596-2.672-0.838-4.092-0.737c-2.07,0.148-3.864,0.952-5.348,2.412C5.697,4.889,5.247,4.715,5.149,4.373
		c-0.064-0.227,0.024-0.4,0.182-0.554c0.998-0.977,2.15-1.709,3.465-2.182C9.83,1.265,10.9,1.095,12.089,1.081z"/>
	<path d="M12.04,4.083c1.721,0.035,3.249,0.644,4.516,1.884c0.157,0.154,0.219,0.334,0.151,0.543
		c-0.062,0.194-0.205,0.307-0.404,0.343c-0.196,0.036-0.345-0.055-0.48-0.186c-0.635-0.619-1.368-1.08-2.222-1.319
		c-2.045-0.571-3.858-0.142-5.424,1.3C8.035,6.78,7.89,6.889,7.686,6.855C7.48,6.82,7.337,6.702,7.271,6.498
		C7.204,6.289,7.274,6.117,7.42,5.972c0.495-0.491,1.054-0.895,1.678-1.206C9.983,4.323,11.014,4.082,12.04,4.083z"/>
	<path d="M12.004,7.116c0.914,0.031,1.739,0.309,2.415,0.958c0.24,0.23,0.261,0.527,0.06,0.743
		c-0.206,0.222-0.505,0.234-0.742,0.001c-0.929-0.916-2.561-0.921-3.504,0.008c-0.223,0.22-0.529,0.209-0.728-0.002
		C9.305,8.612,9.314,8.313,9.541,8.094C10.225,7.431,11.059,7.143,12.004,7.116z"/>
	<path d="M10.99,10.739c-0.003-0.563,0.449-1.022,1.005-1.019c0.542,0.003,1,0.462,1.002,1.006c0.002,0.554-0.461,1.022-1.01,1.019
		C11.438,11.743,10.993,11.293,10.99,10.739z"/>
	<path class="st0" d="M17.962,13.966c-0.422,0.279-0.834,0.545-1.239,0.822c-1.389,0.949-2.783,1.892-4.158,2.862
		c-0.265,0.187-0.507,0.278-0.83,0.275c-1.498-0.015-2.996-0.007-4.494-0.007c-0.072,0-0.143,0-0.226,0c0-1.375,0-2.733,0-4.106
		c0.646,0,1.294,0,1.976,0c0,0.065,0,0.135,0,0.205c0,0.413-0.004,0.827,0.002,1.24c0.005,0.35,0.201,0.539,0.549,0.54
		c0.613,0.001,1.225,0.01,1.837-0.006c0.163-0.004,0.344-0.052,0.483-0.137c1.515-0.924,3.026-1.856,4.532-2.795
		c0.168-0.105,0.298-0.101,0.451-0.002C17.293,13.144,17.669,13.502,17.962,13.966z"/>
	<path class="st0" d="M3.98,17.909c-0.66,0-1.304,0-1.959,0c0-1.366,0-2.724,0-4.097c0.645,0,1.294,0,1.959,0
		C3.98,15.169,3.98,16.531,3.98,17.909z"/>
</g>
</svg>
