<svg xmlns="http://www.w3.org/2000/svg" width="15.987" height="20.699" viewBox="0 0 15.987 20.699"><g transform="translate(0.25 0.25)"><path d="M22.746,13.11a.336.336,0,0,0-.335.337v6.06H17.046V4.694H22.41v6.06a.335.335,0,1,0,.671,0v-6.4a.336.336,0,0,0-.335-.337h-5.7V2.337a.335.335,0,0,0-.423-.325L9.247,4.032A.336.336,0,0,0,9,4.357V19.844a.336.336,0,0,0,.247.325l7.376,2.02a.334.334,0,0,0,.292-.057.338.338,0,0,0,.132-.268V20.18h5.7a.336.336,0,0,0,.335-.337v-6.4A.336.336,0,0,0,22.746,13.11Zm-6.37,8.312L9.671,19.586V4.614l6.705-1.836V21.423Z" transform="translate(-9 -2)" fill="#ee7500"/><path d="M16.711,22.45a.582.582,0,0,1-.154-.021l-7.376-2.02a.588.588,0,0,1-.431-.566V4.357a.588.588,0,0,1,.431-.566l7.376-2.02a.585.585,0,0,1,.739.566V3.77h5.449a.587.587,0,0,1,.585.587v6.4a.585.585,0,1,1-1.171,0V4.944H17.3V19.257H22.16v-5.81a.585.585,0,1,1,1.171,0v6.4a.587.587,0,0,1-.585.587H17.3v1.433a.585.585,0,0,1-.585.587Zm0-20.2a.087.087,0,0,0-.023,0L9.313,4.273a.087.087,0,0,0-.063.084V19.844a.087.087,0,0,0,.063.084l7.376,2.02a.085.085,0,0,0,.074-.015.088.088,0,0,0,.034-.069V19.93h5.949a.086.086,0,0,0,.085-.087v-6.4a.085.085,0,1,0-.171,0v6.31H16.8V4.444H22.66v6.31a.085.085,0,1,0,.171,0v-6.4a.086.086,0,0,0-.085-.087H16.8V2.337a.088.088,0,0,0-.034-.07A.086.086,0,0,0,16.71,2.25Zm-.085,19.5L9.421,19.777V4.423L16.626,2.45ZM9.921,19.4l6.205,1.7V3.105L9.921,4.8Z" transform="translate(-9 -2)" fill="#ee7500"/><path d="M41.678,28.405H36.2l.806-.806a.351.351,0,1,0-.5-.5L35.1,28.508a.353.353,0,0,0,0,.5l1.406,1.406a.351.351,0,1,0,.5-.5l-.806-.806h5.126v1.757a.351.351,0,0,0,.7,0V28.757A.351.351,0,0,0,41.678,28.405Z" transform="translate(-26.543 -18.676)" fill="#ee7500"/><path d="M36.758,26.75a.6.6,0,0,1,.425,1.027l-.379.379h4.874a.6.6,0,0,1,.6.6v2.109a.6.6,0,0,1-1.2,0V29.358H36.8l.379.379a.6.6,0,1,1-.85.851l-1.406-1.406a.6.6,0,0,1-.13-.2.606.606,0,0,1,0-.46.6.6,0,0,1,.131-.2l1.405-1.405A.6.6,0,0,1,36.758,26.75Zm4.92,4.217a.1.1,0,0,0,.1-.1V28.757a.1.1,0,0,0-.1-.1H35.6l1.233-1.233a.1.1,0,1,0-.143-.143l-1.406,1.406a.1.1,0,0,0,0,.144l1.406,1.406a.1.1,0,0,0,.143-.143L35.6,28.858h5.98v2.007A.1.1,0,0,0,41.678,30.967Z" transform="translate(-26.543 -18.676)" fill="#ee7500"/><path d="M24.054,27C23.463,27,23,27.617,23,28.405s.463,1.406,1.054,1.406,1.054-.617,1.054-1.406S24.646,27,24.054,27Zm0,2.109c-.143,0-.351-.274-.351-.7s.208-.7.351-.7.351.274.351.7S24.2,29.108,24.054,29.108Z" transform="translate(-18.318 -18.64)" fill="#ee7500"/><path d="M24.054,26.75a1.5,1.5,0,0,1,1.3,1.656,1.5,1.5,0,0,1-1.3,1.656,1.5,1.5,0,0,1-1.3-1.656A1.5,1.5,0,0,1,24.054,26.75Zm0,2.812c.451,0,.8-.508.8-1.156s-.353-1.156-.8-1.156-.8.508-.8,1.156S23.6,29.561,24.054,29.561Zm0-2.109c.332,0,.6.427.6.953s-.27.953-.6.953-.6-.427-.6-.953S23.723,27.452,24.054,27.452Zm0,1.363a.879.879,0,0,0,0-.82.879.879,0,0,0,0,.82Z" transform="translate(-18.318 -18.64)" fill="#ee7500"/></g></svg>