<?xml version="1.0" encoding="utf-8"?>
<!-- Generator: Adobe Illustrator 25.4.1, SVG Export Plug-In . SVG Version: 6.00 Build 0)  -->
<!DOCTYPE svg PUBLIC "-//W3C//DTD SVG 1.1//EN" "http://www.w3.org/Graphics/SVG/1.1/DTD/svg11.dtd" [
	<!ENTITY ns_extend "http://ns.adobe.com/Extensibility/1.0/">
	<!ENTITY ns_ai "http://ns.adobe.com/AdobeIllustrator/10.0/">
	<!ENTITY ns_graphs "http://ns.adobe.com/Graphs/1.0/">
	<!ENTITY ns_vars "http://ns.adobe.com/Variables/1.0/">
	<!ENTITY ns_imrep "http://ns.adobe.com/ImageReplacement/1.0/">
	<!ENTITY ns_sfw "http://ns.adobe.com/SaveForWeb/1.0/">
	<!ENTITY ns_custom "http://ns.adobe.com/GenericCustomNamespace/1.0/">
	<!ENTITY ns_adobe_xpath "http://ns.adobe.com/XPath/1.0/">
]>
<svg version="1.1" id="레이어_1" xmlns:x="&ns_extend;" xmlns:i="&ns_ai;" xmlns:graph="&ns_graphs;"
	 xmlns="http://www.w3.org/2000/svg" xmlns:xlink="http://www.w3.org/1999/xlink" x="0px" y="0px" width="20px" height="20px"
	 viewBox="0 0 20 20" style="enable-background:new 0 0 20 20;" xml:space="preserve">
<style type="text/css">
	.st0{fill:#FFFFFF;}
</style>
<metadata>
	<sfw  xmlns="&ns_sfw;">
		<slices></slices>
		<sliceSourceBounds  bottomLeftOrigin="true" height="18.016" width="18" x="951" y="530.992"></sliceSourceBounds>
	</sfw>
</metadata>
<g>
	<path d="M7.403,10.877c0,0.758,0,1.49,0,2.263c0.199-0.247,0.378-0.467,0.568-0.701c0.397,0.496,0.785,0.982,1.186,1.482
		c0.088-0.102,0.17-0.197,0.264-0.307C9.619,13.849,9.81,14.076,10,14.304c0.314,0.376,0.624,0.755,0.943,1.128
		c0.039,0.046,0.117,0.083,0.178,0.083c1.273,0.005,2.547,0.005,3.82,0c0.056,0,0.135-0.046,0.165-0.094
		c0.216-0.345,0.424-0.695,0.63-1.046c0.03-0.051,0.052-0.114,0.053-0.172c0.003-0.888,0.002-1.776,0.002-2.664
		c0-0.02-0.004-0.04-0.008-0.069c-0.376,0-0.75,0-1.132,0c0,0.589,0,1.175,0,1.774c0.279,0.122,0.482,0.323,0.554,0.641
		c0.104,0.456-0.196,0.94-0.651,1.04c-0.479,0.106-0.964-0.2-1.056-0.667c-0.081-0.408,0.093-0.765,0.462-0.972
		c0.043-0.024,0.09-0.085,0.091-0.13c0.006-0.557,0.004-1.115,0.004-1.684c-0.575,0-1.143,0-1.723,0c0,0.392,0,0.787,0,1.19
		c0.28,0.127,0.483,0.328,0.554,0.648c0.102,0.457-0.197,0.929-0.659,1.031c-0.476,0.105-0.951-0.192-1.048-0.655
		c-0.084-0.398,0.085-0.774,0.443-0.964c0.084-0.044,0.118-0.089,0.116-0.187c-0.007-0.351-0.003-0.701-0.003-1.076
		c-0.096,0-0.187,0.001-0.277,0c-0.335-0.004-0.586-0.253-0.59-0.586c-0.002-0.181-0.001-0.361,0-0.542
		c0.001-0.369,0.231-0.637,0.599-0.618c0.291,0.014,0.451-0.093,0.629-0.314c0.453-0.564,1.066-0.839,1.792-0.851
		c0.05-0.001,0.101,0,0.167,0c0-0.466,0.003-0.919-0.005-1.372c-0.001-0.042-0.067-0.094-0.114-0.122
		c-0.68-0.409-1.119-0.991-1.276-1.775c-0.219-1.094,0.283-2.206,1.255-2.764c0.109-0.062,0.146-0.127,0.144-0.25
		c-0.008-0.417-0.003-0.835-0.003-1.263c0.777,0,1.542,0,2.322,0c0.003,0.056,0.008,0.111,0.009,0.166
		c0.001,0.377,0.003,0.754-0.001,1.131c-0.001,0.092,0.025,0.145,0.108,0.196c0.966,0.581,1.428,1.442,1.325,2.562
		c-0.08,0.869-0.536,1.534-1.291,1.979c-0.11,0.065-0.144,0.132-0.143,0.254c0.006,0.578,0,1.156,0.007,1.735
		c0.001,0.072,0.042,0.153,0.086,0.214c0.093,0.129,0.194,0.254,0.303,0.37c0.043,0.046,0.111,0.083,0.173,0.092
		c0.132,0.018,0.268,0.003,0.4,0.023c0.279,0.043,0.47,0.262,0.478,0.542c0.006,0.211,0.006,0.423,0,0.635
		c-0.009,0.32-0.257,0.556-0.58,0.559c-0.282,0.002-0.564,0.001-0.855,0.001c0,0.596,0,1.177,0,1.758
		c0.008,0.005,0.017,0.01,0.025,0.014c0.175-0.29,0.35-0.579,0.538-0.89c0.035,0.051,0.063,0.09,0.088,0.13
		c0.63,1.051,1.261,2.102,1.888,3.155c0.035,0.059,0.064,0.132,0.064,0.199C19.001,16.85,19,17.872,19,18.895
		c0,0.035-0.005,0.07-0.009,0.113c-5.996,0-11.984,0-17.983,0C1.005,18.951,1,18.901,1,18.851c0-0.996-0.001-1.993,0.002-2.989
		c0-0.068,0.015-0.145,0.049-0.203c0.642-1.08,1.289-2.158,1.934-3.236c0.013-0.021,0.028-0.041,0.057-0.083
		c0.635,1.058,1.26,2.102,1.898,3.165c0.232-0.28,0.456-0.548,0.676-0.818c0.02-0.024,0.023-0.067,0.023-0.101
		c0.001-1.218,0-2.437-0.001-3.655c0-0.01-0.004-0.02-0.012-0.055c-0.239,0-0.485-0.016-0.729,0.005
		c-0.187,0.016-0.279-0.053-0.305-0.224c-0.038-0.248-0.075-0.496-0.097-0.746C4.488,9.826,4.471,9.774,4.393,9.73
		C3.49,9.218,2.848,8.477,2.467,7.511C2.432,7.423,2.389,7.397,2.299,7.398c-0.33,0.005-0.66-0.001-0.99,0.004
		C1.222,7.403,1.183,7.375,1.153,7.295C0.741,6.214,1.219,5.083,2.278,4.628c0.06-0.026,0.121-0.093,0.145-0.155
		c0.433-1.137,1.189-1.974,2.29-2.496C4.77,1.95,4.824,1.903,4.862,1.852c0.845-1.146,2.469-1.147,3.315-0.001
		c0.038,0.051,0.092,0.098,0.149,0.125c1.101,0.523,1.856,1.36,2.291,2.496c0.025,0.066,0.093,0.134,0.158,0.162
		c0.779,0.336,1.288,1.089,1.257,1.923c-0.009,0.252-0.099,0.501-0.152,0.752c-0.017,0.081-0.074,0.094-0.149,0.093
		c-0.33-0.004-0.66,0.001-0.99-0.003c-0.09-0.001-0.134,0.024-0.169,0.113c-0.38,0.966-1.023,1.707-1.925,2.219
		c-0.079,0.045-0.108,0.094-0.1,0.183c0.023,0.287-0.034,0.562-0.127,0.833c-0.033,0.096-0.075,0.138-0.185,0.134
		C7.962,10.87,7.69,10.877,7.403,10.877z M5.084,18.414c0.194,0,0.371,0,0.563,0c0-0.582,0-1.152,0-1.728c0.59,0,1.164,0,1.753,0
		c0,0.582,0,1.152,0,1.73c0.192,0,0.369,0,0.562,0c0-0.58,0-1.15,0-1.727c0.593,0,1.171,0,1.764,0c0,0.585,0,1.155,0,1.723
		c0.193,0,0.37,0,0.562,0c0-0.583,0-1.153,0-1.726c0.59,0,1.165,0,1.754,0c0,0.583,0,1.153,0,1.729c0.192,0,0.369,0,0.562,0
		c0-0.581,0-1.151,0-1.73c0.59,0,1.164,0,1.759,0c0,0.584,0,1.158,0,1.733c0.194,0,0.368,0,0.546,0c0-0.773,0-1.538,0-2.299
		c-3.282,0-6.552,0-9.825,0C5.084,16.888,5.084,17.645,5.084,18.414z M16.087,16.113c0.595,0,1.164,0,1.748,0
		c0,0.772,0,1.534,0,2.302c0.197,0,0.379,0,0.567,0c0.003-0.04,0.008-0.07,0.008-0.1c0-0.774,0.002-1.548-0.002-2.323
		c0-0.067-0.029-0.14-0.064-0.199c-0.373-0.629-0.75-1.255-1.126-1.882c-0.081-0.135-0.162-0.27-0.251-0.418
		c-0.023,0.031-0.036,0.045-0.046,0.061c-0.456,0.759-0.912,1.518-1.365,2.279c-0.032,0.053-0.041,0.127-0.042,0.191
		c-0.003,0.748-0.002,1.497-0.001,2.245c0,0.049,0.005,0.098,0.008,0.147c0.197,0,0.375,0,0.568,0
		C16.087,17.646,16.087,16.885,16.087,16.113z M3.044,13.494c-0.023,0.029-0.036,0.043-0.045,0.059
		c-0.456,0.759-0.913,1.518-1.365,2.279c-0.032,0.053-0.042,0.126-0.042,0.19c-0.003,0.748-0.002,1.497-0.001,2.245
		c0,0.049,0.005,0.099,0.007,0.144c0.2,0,0.382,0,0.578,0c0-0.776,0-1.537,0-2.299c0.584,0,1.153,0,1.743,0c0,0.775,0,1.54,0,2.303
		c0.199,0,0.377,0,0.559,0c0.005-0.029,0.011-0.049,0.011-0.068c0.001-0.79,0.002-1.579-0.002-2.369
		c0-0.062-0.031-0.129-0.063-0.184c-0.368-0.62-0.739-1.238-1.11-1.856C3.226,13.794,3.139,13.651,3.044,13.494z M11.408,6.804
		c0.119-0.617-0.138-1.203-0.66-1.522c-0.516-0.315-1.182-0.269-1.659,0.115c-0.422,0.34-0.634,0.951-0.484,1.408
		C9.534,6.804,10.465,6.804,11.408,6.804z M4.45,6.801c0.141-0.654-0.22-1.253-0.654-1.514C3.303,4.993,2.675,5.006,2.21,5.335
		C1.736,5.672,1.508,6.249,1.635,6.801C2.569,6.801,3.505,6.801,4.45,6.801z M6.532,10.286c0.366,0,0.731,0,1.097,0
		c0.335,0,0.338,0,0.33-0.344C7.941,9.206,7.318,8.517,6.461,8.561c-0.856,0.044-1.427,0.718-1.382,1.577
		c0.006,0.109,0.038,0.152,0.155,0.151C5.667,10.282,6.099,10.286,6.532,10.286z M6.511,3.315c0.433,0,0.865-0.001,1.298,0.001
		c0.081,0,0.134-0.009,0.149-0.107c0.126-0.833-0.62-1.663-1.461-1.624C5.63,1.626,5.021,2.312,5.079,3.178
		c0.007,0.104,0.043,0.141,0.15,0.14C5.656,3.312,6.084,3.315,6.511,3.315z M17.235,10.317c-1.935,0-3.853,0-5.771,0
		c0,0.191,0,0.368,0,0.544c1.93,0,3.849,0,5.771,0C17.235,10.675,17.235,10.501,17.235,10.317z M17.028,3.895
		c-0.315-0.734-1.114-1.185-1.989-1.14c-0.663,0.034-1.451,0.588-1.619,1.14C14.619,3.895,15.816,3.895,17.028,3.895z M13.425,5.665
		c0.218,0.574,0.95,1.17,1.844,1.14c0.771-0.026,1.632-0.601,1.738-1.14C15.814,5.665,14.621,5.665,13.425,5.665z M6.226,3.907
		c-0.439,0-0.856-0.001-1.272,0.002c-0.037,0-0.08,0.022-0.109,0.046C4.558,4.191,4.34,4.479,4.176,4.825
		c0.285,0.203,0.509,0.454,0.673,0.759c0.017,0.032,0.083,0.052,0.127,0.053c0.206,0.005,0.412,0.008,0.618-0.001
		c0.048-0.002,0.116-0.04,0.139-0.081c0.099-0.177,0.233-0.311,0.411-0.407c0.037-0.02,0.079-0.071,0.08-0.108
		C6.228,4.668,6.226,4.298,6.226,3.907z M6.814,3.907c0,0.391-0.003,0.757,0.004,1.123c0.001,0.041,0.05,0.086,0.085,0.122
		c0.131,0.134,0.263,0.266,0.399,0.396C7.34,5.584,7.39,5.632,7.437,5.634C7.653,5.644,7.87,5.641,8.086,5.636
		c0.035-0.001,0.087-0.019,0.1-0.045c0.164-0.31,0.392-0.564,0.676-0.768C8.704,4.49,8.494,4.212,8.226,3.98
		C8.189,3.948,8.139,3.91,8.095,3.91C7.674,3.905,7.253,3.907,6.814,3.907z M5.055,6.23c0,0.19,0.016,0.365-0.005,0.536
		C5.029,6.937,4.967,7.103,4.93,7.273C4.907,7.38,4.849,7.41,4.746,7.402C4.63,7.393,4.514,7.4,4.37,7.4
		C4.64,7.792,4.967,8.07,5.364,8.268C5.39,8.281,5.434,8.276,5.462,8.264c0.249-0.103,0.496-0.209,0.763-0.323
		c0-0.347,0.002-0.728-0.004-1.109c-0.001-0.037-0.043-0.088-0.08-0.106c-0.181-0.092-0.313-0.228-0.41-0.406
		C5.712,6.283,5.665,6.236,5.629,6.234C5.44,6.225,5.251,6.23,5.055,6.23z M6.822,6.761c0,0.412,0,0.818,0,1.185
		c0.261,0.11,0.501,0.213,0.742,0.309c0.04,0.016,0.102,0.018,0.138-0.002c0.126-0.069,0.249-0.145,0.366-0.229
		C8.299,7.859,8.496,7.661,8.666,7.4c-0.149,0-0.271-0.007-0.393,0.002C8.177,7.409,8.14,7.367,8.11,7.283
		C7.99,6.945,7.923,6.601,7.985,6.23c-0.2,0-0.385-0.003-0.569,0.003C7.383,6.233,7.334,6.259,7.321,6.287
		C7.217,6.514,7.043,6.666,6.822,6.761z M6.795,13.933c0-1.041,0-2.045,0-3.047c-0.192,0-0.37,0-0.551,0c0,1.014,0,2.018,0,3.049
		c0.101-0.118,0.184-0.215,0.277-0.323C6.609,13.717,6.691,13.812,6.795,13.933z M7.167,14.387c0.27,0.324,0.533,0.639,0.803,0.963
		c0.275-0.33,0.537-0.646,0.801-0.964c-0.271-0.339-0.534-0.667-0.803-1.003C7.697,13.723,7.435,14.052,7.167,14.387z M15.774,9.7
		c0.035-0.261,0.037-0.276-0.179-0.368c-0.164-0.07-0.336-0.145-0.51-0.159c-0.389-0.031-0.781-0.031-1.172-0.034
		c-0.409-0.003-0.778,0.124-1.104,0.371c-0.065,0.05-0.121,0.112-0.204,0.19C13.686,9.7,14.725,9.7,15.774,9.7z M15.781,8.712
		c0-0.442,0-0.904,0-1.342c-0.381,0-0.752,0-1.13,0c0,0.373,0,0.771,0,1.133C15.037,8.574,15.407,8.642,15.781,8.712z M3.051,7.4
		c0.346,0.789,0.871,1.373,1.584,1.795C4.735,9.03,4.83,8.874,4.929,8.71C4.414,8.399,4.004,7.989,3.713,7.462
		C3.696,7.431,3.642,7.404,3.604,7.403C3.43,7.396,3.255,7.4,3.051,7.4z M8.404,9.196C9.119,8.767,9.648,8.185,9.986,7.4
		c-0.193,0-0.352,0.006-0.511-0.002c-0.092-0.005-0.131,0.038-0.18,0.107C9.121,7.746,8.953,7.996,8.749,8.21
		c-0.186,0.195-0.416,0.348-0.628,0.52C8.208,8.873,8.301,9.026,8.404,9.196z M9.979,4.464C9.67,3.759,9.202,3.204,8.563,2.785
		C8.547,2.997,8.53,3.186,8.52,3.376C8.518,3.41,8.539,3.457,8.565,3.479c0.332,0.285,0.601,0.62,0.803,1.01
		c0.017,0.032,0.08,0.061,0.117,0.057C9.643,4.527,9.798,4.495,9.979,4.464z M4.477,2.783C3.833,3.21,3.361,3.763,3.062,4.464
		c0.179,0.031,0.335,0.064,0.492,0.081c0.04,0.004,0.107-0.033,0.125-0.07C3.876,4.094,4.141,3.77,4.462,3.489
		c0.03-0.026,0.057-0.076,0.056-0.113C4.51,3.186,4.493,2.997,4.477,2.783z M2.763,18.415c0.193,0,0.37,0,0.545,0
		c0-0.579,0-1.147,0-1.709c-0.19,0-0.367,0-0.545,0C2.763,17.28,2.763,17.841,2.763,18.415z M17.231,18.418c0-0.576,0-1.144,0-1.714
		c-0.187,0-0.364,0-0.538,0c0,0.578,0,1.146,0,1.714C16.879,18.418,17.052,18.418,17.231,18.418z M10.236,15.513
		c-0.283-0.34-0.545-0.654-0.817-0.98c-0.273,0.329-0.536,0.646-0.814,0.98C9.158,15.513,9.68,15.513,10.236,15.513z M7.334,15.512
		c-0.283-0.34-0.546-0.656-0.815-0.979c-0.272,0.328-0.536,0.646-0.813,0.979C6.259,15.512,6.782,15.512,7.334,15.512z
		 M15.782,1.595c-0.378,0-0.754,0-1.133,0c0,0.213,0,0.417,0,0.594c0.381,0,0.753,0,1.133,0C15.782,2.006,15.782,1.806,15.782,1.595
		z M6.8,18.419c0-0.387,0-0.756,0-1.134c-0.19,0-0.372,0-0.559,0c0,0.383,0,0.755,0,1.134C6.431,18.419,6.609,18.419,6.8,18.419z
		 M9.119,18.418c0-0.389,0-0.758,0-1.131c-0.192,0-0.373,0-0.556,0c0,0.384,0,0.757,0,1.131C8.755,18.418,8.932,18.418,9.119,18.418
		z M10.879,18.414c0.196,0,0.377,0,0.562,0c0-0.381,0-0.75,0-1.129c-0.19,0-0.372,0-0.562,0
		C10.879,17.664,10.879,18.033,10.879,18.414z M13.75,18.418c0-0.387,0-0.762,0-1.128c-0.196,0-0.373,0-0.55,0
		c0,0.383,0,0.751,0,1.128C13.388,18.418,13.566,18.418,13.75,18.418z M15.524,4.497c0,0.181,0,0.362,0,0.549
		c0.188,0,0.369,0,0.557,0c0-0.188,0-0.365,0-0.549C15.893,4.497,15.715,4.497,15.524,4.497z M13.216,4.497c0,0.193,0,0.373,0,0.549
		c0.197,0,0.368,0,0.544,0c0-0.189,0-0.365,0-0.549C13.579,4.497,13.406,4.497,13.216,4.497z M14.912,5.05c0-0.191,0-0.368,0-0.55
		c-0.186,0-0.363,0-0.544,0c0,0.187,0,0.365,0,0.55C14.551,5.05,14.724,5.05,14.912,5.05z M16.687,5.057
		c0.16,0,0.303,0.002,0.446-0.002c0.032-0.001,0.089-0.022,0.09-0.036c0.006-0.163,0.016-0.328-0.009-0.488
		c-0.004-0.027-0.171-0.033-0.263-0.04C16.866,4.485,16.78,4.49,16.687,4.49C16.687,4.683,16.687,4.86,16.687,5.057z M12.319,13.482
		c-0.005-0.148-0.15-0.284-0.295-0.28c-0.153,0.005-0.28,0.141-0.276,0.295c0.004,0.154,0.141,0.285,0.291,0.279
		C12.187,13.771,12.324,13.626,12.319,13.482z M14.354,14.349c0.156-0.002,0.288-0.133,0.285-0.283
		c-0.003-0.15-0.141-0.283-0.291-0.282c-0.154,0.001-0.282,0.133-0.28,0.288C14.069,14.233,14.191,14.351,14.354,14.349z
		 M6.518,5.659C6.36,5.66,6.231,5.788,6.233,5.941c0.002,0.151,0.138,0.285,0.288,0.284c0.15-0.001,0.285-0.137,0.285-0.287
		C6.806,5.784,6.676,5.659,6.518,5.659z"/>
	<path class="st0" d="M5.084,18.414c0-0.769,0-1.527,0-2.296c3.273,0,6.543,0,9.825,0c0,0.761,0,1.526,0,2.299
		c-0.178,0-0.351,0-0.546,0c0-0.575,0-1.149,0-1.733c-0.595,0-1.17,0-1.759,0c0,0.579,0,1.15,0,1.73c-0.192,0-0.369,0-0.562,0
		c0-0.575,0-1.146,0-1.729c-0.589,0-1.164,0-1.754,0c0,0.573,0,1.143,0,1.726c-0.192,0-0.369,0-0.562,0c0-0.568,0-1.138,0-1.723
		c-0.594,0-1.171,0-1.764,0c0,0.576,0,1.147,0,1.727c-0.192,0-0.369,0-0.562,0c0-0.578,0-1.148,0-1.73c-0.589,0-1.164,0-1.753,0
		c0,0.576,0,1.146,0,1.728C5.455,18.414,5.278,18.414,5.084,18.414z"/>
	<path class="st0" d="M16.087,16.113c0,0.772,0,1.533,0,2.303c-0.193,0-0.371,0-0.568,0c-0.003-0.049-0.007-0.098-0.008-0.147
		c0-0.748-0.001-1.497,0.001-2.245c0-0.064,0.01-0.137,0.042-0.191c0.452-0.761,0.909-1.52,1.365-2.279
		c0.01-0.016,0.023-0.03,0.046-0.061c0.089,0.148,0.17,0.283,0.251,0.418c0.376,0.627,0.753,1.253,1.126,1.882
		c0.035,0.059,0.064,0.133,0.064,0.199c0.004,0.774,0.003,1.548,0.002,2.323c0,0.03-0.005,0.06-0.008,0.1c-0.188,0-0.37,0-0.567,0
		c0-0.768,0-1.53,0-2.302C17.251,16.113,16.682,16.113,16.087,16.113z"/>
	<path class="st0" d="M3.044,13.494c0.094,0.157,0.182,0.3,0.268,0.444c0.371,0.618,0.742,1.236,1.11,1.856
		c0.033,0.055,0.063,0.123,0.063,0.184c0.004,0.79,0.003,1.579,0.002,2.369c0,0.02-0.006,0.039-0.011,0.068c-0.182,0-0.36,0-0.559,0
		c0-0.762,0-1.528,0-2.303c-0.589,0-1.159,0-1.743,0c0,0.762,0,1.523,0,2.299c-0.196,0-0.378,0-0.578,0
		c-0.002-0.045-0.007-0.094-0.007-0.144c0-0.748-0.001-1.497,0.001-2.245c0-0.064,0.011-0.137,0.042-0.19
		c0.452-0.761,0.909-1.52,1.365-2.279C3.009,13.537,3.022,13.523,3.044,13.494z"/>
	<path class="st0" d="M11.408,6.804c-0.942,0-1.874,0-2.804,0C8.454,6.347,8.666,5.736,9.088,5.396
		c0.477-0.384,1.144-0.43,1.659-0.115C11.27,5.601,11.527,6.187,11.408,6.804z"/>
	<path class="st0" d="M4.45,6.801c-0.945,0-1.881,0-2.815,0C1.508,6.249,1.736,5.672,2.21,5.335c0.464-0.33,1.093-0.343,1.585-0.048
		C4.23,5.548,4.591,6.147,4.45,6.801z"/>
	<path class="st0" d="M6.532,10.286c-0.433,0-0.865-0.004-1.298,0.003c-0.117,0.002-0.149-0.042-0.155-0.151
		C5.034,9.279,5.604,8.605,6.461,8.561c0.858-0.044,1.48,0.645,1.498,1.381c0.008,0.344,0.005,0.344-0.33,0.344
		C7.264,10.286,6.898,10.286,6.532,10.286z"/>
	<path class="st0" d="M6.511,3.315c-0.427,0-0.855-0.003-1.282,0.002c-0.107,0.001-0.143-0.035-0.15-0.14
		C5.021,2.312,5.63,1.626,6.497,1.585c0.841-0.039,1.587,0.791,1.461,1.624C7.943,3.307,7.89,3.317,7.809,3.316
		C7.377,3.314,6.944,3.315,6.511,3.315z"/>
	<path class="st0" d="M17.235,10.317c0,0.184,0,0.358,0,0.544c-1.922,0-3.841,0-5.771,0c0-0.175,0-0.353,0-0.544
		C13.382,10.317,15.301,10.317,17.235,10.317z"/>
	<path class="st0" d="M17.028,3.895c-1.213,0-2.41,0-3.608,0c0.168-0.551,0.957-1.105,1.619-1.14
		C15.915,2.71,16.714,3.161,17.028,3.895z"/>
	<path class="st0" d="M13.425,5.665c1.196,0,2.389,0,3.583,0c-0.106,0.539-0.967,1.114-1.738,1.14
		C14.375,6.834,13.643,6.238,13.425,5.665z"/>
	<path class="st0" d="M6.226,3.907c0,0.391,0.002,0.762-0.004,1.132c-0.001,0.037-0.043,0.089-0.08,0.108
		c-0.178,0.096-0.312,0.23-0.411,0.407c-0.023,0.041-0.09,0.079-0.139,0.081C5.387,5.644,5.181,5.642,4.975,5.636
		C4.931,5.635,4.866,5.615,4.849,5.583C4.685,5.278,4.461,5.028,4.176,4.825c0.164-0.345,0.382-0.634,0.668-0.87
		c0.03-0.024,0.072-0.046,0.109-0.046C5.37,3.905,5.786,3.907,6.226,3.907z"/>
	<path class="st0" d="M6.814,3.907c0.439,0,0.86-0.002,1.281,0.003C8.139,3.91,8.189,3.948,8.226,3.98
		C8.494,4.212,8.704,4.49,8.862,4.824C8.579,5.027,8.35,5.281,8.186,5.591c-0.014,0.026-0.066,0.044-0.1,0.045
		C7.87,5.641,7.653,5.644,7.437,5.634C7.39,5.632,7.34,5.584,7.301,5.547C7.166,5.418,7.033,5.286,6.902,5.152
		C6.868,5.116,6.818,5.071,6.818,5.03C6.811,4.664,6.814,4.298,6.814,3.907z"/>
	<path class="st0" d="M5.055,6.23c0.196,0,0.385-0.005,0.574,0.004c0.037,0.002,0.083,0.049,0.104,0.087
		c0.097,0.177,0.229,0.313,0.41,0.406c0.036,0.019,0.079,0.07,0.08,0.106c0.006,0.381,0.004,0.761,0.004,1.109
		c-0.268,0.114-0.515,0.22-0.763,0.323C5.434,8.276,5.39,8.281,5.364,8.268C4.967,8.07,4.64,7.792,4.37,7.4
		c0.144,0,0.261-0.007,0.376,0.002C4.849,7.41,4.907,7.38,4.93,7.273c0.037-0.17,0.099-0.335,0.12-0.507
		C5.071,6.595,5.055,6.419,5.055,6.23z"/>
	<path class="st0" d="M6.822,6.761c0.22-0.096,0.394-0.247,0.499-0.474c0.013-0.028,0.062-0.054,0.095-0.055
		C7.601,6.227,7.786,6.23,7.985,6.23C7.923,6.601,7.99,6.945,8.11,7.283c0.03,0.085,0.067,0.126,0.163,0.119
		C8.394,7.393,8.517,7.4,8.666,7.4c-0.17,0.261-0.367,0.459-0.597,0.625c-0.117,0.084-0.24,0.16-0.366,0.229
		c-0.036,0.02-0.098,0.018-0.138,0.002C7.323,8.159,7.084,8.056,6.822,7.946C6.822,7.579,6.822,7.173,6.822,6.761z"/>
	<path class="st0" d="M6.795,13.933c-0.104-0.121-0.185-0.217-0.275-0.321c-0.092,0.108-0.175,0.205-0.277,0.323
		c0-1.031,0-2.035,0-3.049c0.181,0,0.359,0,0.551,0C6.795,11.888,6.795,12.892,6.795,13.933z"/>
	<path class="st0" d="M7.167,14.387c0.267-0.335,0.53-0.664,0.802-1.005c0.269,0.336,0.531,0.664,0.803,1.003
		c-0.265,0.318-0.527,0.634-0.801,0.964C7.7,15.026,7.438,14.711,7.167,14.387z"/>
	<path class="st0" d="M15.774,9.7c-1.049,0-2.089,0-3.169,0c0.083-0.078,0.139-0.14,0.204-0.19c0.326-0.248,0.695-0.375,1.104-0.371
		c0.391,0.003,0.783,0.003,1.172,0.034c0.173,0.014,0.346,0.089,0.51,0.159C15.811,9.424,15.809,9.438,15.774,9.7z"/>
	<path class="st0" d="M15.781,8.712c-0.374-0.069-0.743-0.138-1.13-0.209c0-0.361,0-0.759,0-1.133c0.377,0,0.749,0,1.13,0
		C15.781,7.808,15.781,8.27,15.781,8.712z"/>
	<path class="st0" d="M3.051,7.4c0.204,0,0.379-0.003,0.553,0.003c0.038,0.001,0.091,0.028,0.108,0.059
		C4.004,7.989,4.414,8.399,4.929,8.71C4.83,8.874,4.735,9.03,4.635,9.195C3.922,8.773,3.398,8.189,3.051,7.4z"/>
	<path class="st0" d="M8.404,9.196c-0.103-0.17-0.196-0.323-0.282-0.466c0.211-0.172,0.442-0.325,0.628-0.52
		c0.204-0.214,0.372-0.465,0.546-0.706c0.049-0.069,0.088-0.112,0.18-0.107C9.634,7.406,9.794,7.4,9.986,7.4
		C9.648,8.185,9.119,8.767,8.404,9.196z"/>
	<path class="st0" d="M9.979,4.464C9.798,4.495,9.643,4.527,9.486,4.546C9.448,4.55,9.385,4.521,9.368,4.489
		C9.166,4.1,8.897,3.765,8.565,3.479C8.539,3.457,8.518,3.41,8.52,3.376c0.009-0.19,0.027-0.379,0.043-0.591
		C9.202,3.204,9.67,3.759,9.979,4.464z"/>
	<path class="st0" d="M4.477,2.783C4.493,2.997,4.51,3.186,4.518,3.376c0.002,0.037-0.026,0.087-0.056,0.113
		C4.141,3.77,3.876,4.094,3.679,4.475C3.66,4.512,3.594,4.549,3.554,4.545c-0.157-0.017-0.313-0.05-0.492-0.081
		C3.361,3.763,3.833,3.21,4.477,2.783z"/>
	<path class="st0" d="M2.763,18.415c0-0.574,0-1.135,0-1.709c0.178,0,0.355,0,0.545,0c0,0.561,0,1.13,0,1.709
		C3.133,18.415,2.956,18.415,2.763,18.415z"/>
	<path class="st0" d="M17.231,18.418c-0.18,0-0.352,0-0.538,0c0-0.568,0-1.136,0-1.714c0.175,0,0.351,0,0.538,0
		C17.231,17.273,17.231,17.841,17.231,18.418z"/>
	<path class="st0" d="M10.236,15.513c-0.557,0-1.078,0-1.631,0c0.278-0.334,0.541-0.651,0.814-0.98
		C9.691,14.859,9.953,15.173,10.236,15.513z"/>
	<path class="st0" d="M7.334,15.512c-0.553,0-1.075,0-1.628,0c0.277-0.333,0.541-0.651,0.813-0.979
		C6.788,14.856,7.051,15.171,7.334,15.512z"/>
	<path class="st0" d="M15.782,1.595c0,0.212,0,0.411,0,0.594c-0.38,0-0.753,0-1.133,0c0-0.177,0-0.381,0-0.594
		C15.027,1.595,15.404,1.595,15.782,1.595z"/>
	<path class="st0" d="M6.8,18.419c-0.191,0-0.369,0-0.559,0c0-0.379,0-0.751,0-1.134c0.187,0,0.368,0,0.559,0
		C6.8,17.663,6.8,18.032,6.8,18.419z"/>
	<path class="st0" d="M9.119,18.418c-0.187,0-0.365,0-0.556,0c0-0.374,0-0.746,0-1.131c0.182,0,0.364,0,0.556,0
		C9.119,17.66,9.119,18.029,9.119,18.418z"/>
	<path class="st0" d="M10.879,18.414c0-0.381,0-0.75,0-1.129c0.19,0,0.372,0,0.562,0c0,0.379,0,0.748,0,1.129
		C11.257,18.414,11.075,18.414,10.879,18.414z"/>
	<path class="st0" d="M13.75,18.418c-0.185,0-0.363,0-0.55,0c0-0.377,0-0.745,0-1.128c0.177,0,0.354,0,0.55,0
		C13.75,17.656,13.75,18.03,13.75,18.418z"/>
	<path class="st0" d="M15.524,4.497c0.191,0,0.369,0,0.557,0c0,0.184,0,0.361,0,0.549c-0.187,0-0.369,0-0.557,0
		C15.524,4.859,15.524,4.678,15.524,4.497z"/>
	<path class="st0" d="M13.216,4.497c0.19,0,0.362,0,0.544,0c0,0.183,0,0.36,0,0.549c-0.176,0-0.347,0-0.544,0
		C13.216,4.87,13.216,4.69,13.216,4.497z"/>
	<path class="st0" d="M14.912,5.05c-0.188,0-0.362,0-0.544,0c0-0.186,0-0.363,0-0.55c0.181,0,0.358,0,0.544,0
		C14.912,4.681,14.912,4.859,14.912,5.05z"/>
	<path class="st0" d="M16.687,5.057c0-0.197,0-0.374,0-0.567c0.093,0,0.179-0.005,0.264,0.001c0.092,0.007,0.259,0.013,0.263,0.04
		c0.025,0.159,0.015,0.325,0.009,0.488c-0.001,0.014-0.058,0.035-0.09,0.036C16.99,5.059,16.847,5.057,16.687,5.057z"/>
	<path class="st0" d="M12.319,13.482c0.005,0.145-0.132,0.289-0.28,0.295c-0.15,0.006-0.287-0.125-0.291-0.279
		c-0.004-0.154,0.123-0.29,0.276-0.295C12.169,13.197,12.313,13.334,12.319,13.482z"/>
	<path class="st0" d="M14.354,14.349c-0.163,0.002-0.285-0.117-0.286-0.277c-0.001-0.155,0.126-0.287,0.28-0.288
		c0.15-0.001,0.288,0.133,0.291,0.282C14.642,14.216,14.51,14.348,14.354,14.349z"/>
	<path class="st0" d="M6.518,5.659c0.158-0.001,0.288,0.125,0.288,0.278c0,0.149-0.135,0.286-0.285,0.287
		c-0.15,0.001-0.286-0.133-0.288-0.284C6.231,5.788,6.36,5.66,6.518,5.659z"/>
</g>
</svg>
