<svg xmlns="http://www.w3.org/2000/svg" xmlns:xlink="http://www.w3.org/1999/xlink" width="149.004" height="45.601" viewBox="0 0 149.004 45.601"><defs><clipPath id="a"><rect width="149.004" height="45.601" fill="none"/></clipPath></defs><g transform="translate(0 -0.001)"><g transform="translate(0 0.001)" clip-path="url(#a)"><path d="M27.671,13.1h7.783V14.44H27.671V25.5H39.225l-.038,1.376h-15.8V1.579A1.228,1.228,0,0,1,24.616.356H38.787l.04,1.338H27.667Z" transform="translate(8.605 0.13)" fill="#241b15"/><path d="M84.042,4.83h0A1.829,1.829,0,0,0,83.118,7.1a21.914,21.914,0,0,1,1.163,7.453c0,6.372-2.82,11.412-7.505,11.412-5.521,0-8.14-5.706-8.14-13.415,0-6.063,2.781-11.211,7.427-11.211a6.573,6.573,0,0,1,5.159,2.4,1.256,1.256,0,0,0,1.757.163,1.228,1.228,0,0,0,.164-1.739,1.261,1.261,0,0,0-.257-.233A11.663,11.663,0,0,0,76.459,0c-6.91,0-12.31,5.587-12.31,13.768,0,8.3,5.479,13.533,12.31,13.533,6.988,0,12.31-5.349,12.31-13.768A14.446,14.446,0,0,0,86.452,5.5a1.892,1.892,0,0,0-2.41-.674" transform="translate(23.609 -0.001)" fill="#241b15"/><path d="M20.172,26.2c-1.627,0-2.5-.826-3.851-3.264l-2.3-4.09a7.4,7.4,0,0,0-3.732-3.579,7.7,7.7,0,0,0,6.472-7.632c0-4.208-3.137-7.277-9.371-7.277H1.234A1.229,1.229,0,0,0,0,1.578V26.869H4.287V1.693H6.553c4.447,0,6,3.146,6,6.137,0,3.264-1.747,6.45-6.272,6.45H5.536v1.449c1.172.268,2.684,1.328,4.588,4.727l1.986,3.5a5.9,5.9,0,0,0,5.52,3.3,8.772,8.772,0,0,0,2.382-.238l.279-.826Z" transform="translate(0 0.13)" fill="#241b15"/><path d="M114.434.356h-2.856l-8.734,20.417L94.584,1.114A1.241,1.241,0,0,0,93.438.356H90.573V26.867H92.2V6.533l8.735,20.534h.914L111.42,4.92V26.87h4.249V1.578A1.227,1.227,0,0,0,114.437.356h0" transform="translate(33.334 0.13)" fill="#241b15"/><path d="M43.775,22.176h.762a9.189,9.189,0,0,0,7.1,3.55c3.01,0,5.482-1.722,5.482-5.219,0-3.259-2.353-4.372-5.361-5.445-3.729-1.35-7.982-2.821-7.982-7.829C43.775,1.988,48.147,0,52.681,0a13.378,13.378,0,0,1,6.684,1.914v2.9h-.72a7.485,7.485,0,0,0-6-3.231c-2.768,0-4.714,1.683-4.714,5.1,0,3.5,2.547,4.571,5.8,5.722,3.569,1.272,7.547,2.944,7.547,7.634,0,5.285-4.861,7.267-9.634,7.267a16.09,16.09,0,0,1-7.862-1.947Z" transform="translate(16.111 -0.002)" fill="#241b15"/><path d="M11.558,35.023H10.5V31.885H7.557v3.138H6.494V28.455H7.557v3.092H10.5V28.455h1.062Z" transform="translate(2.39 10.471)" fill="#241b15"/><path d="M15.372,28.384a3.159,3.159,0,0,1,3.053,3.263c0,.03,0,.06-.005.09a3.068,3.068,0,1,1-6.1.059,3.139,3.139,0,0,1,2.862-3.4c.062-.005.124-.01.186-.012m.079,6.431c1.16,0,1.859-1.248,1.859-2.826,0-1.832-.669-3.274-2.04-3.274-1.152,0-1.84,1.275-1.84,2.776,0,1.911.648,3.323,2.016,3.323" transform="translate(4.529 10.445)" fill="#241b15"/><path d="M20.835,28.456c1.622,0,2.449.662,2.449,1.657A1.525,1.525,0,0,1,22,31.585v.01c1.16.237,1.584.837,1.584,1.6,0,1.081-.84,1.832-2.64,1.832H18.976V28.456Zm-.2,3.021c1.092,0,1.543-.476,1.543-1.326a1.312,1.312,0,0,0-1.248-1.375,1.242,1.242,0,0,0-.257.011h-.639v2.69Zm-.6.331v2.884H20.7c1.249,0,1.731-.584,1.731-1.461s-.58-1.427-1.8-1.427Z" transform="translate(6.984 10.471)" fill="#241b15"/><path d="M27.354,28.455,29.5,35.023h-1.12l-.64-2H25.131l-.668,2h-.394l2.241-6.568Zm-2.1,4.224h2.38l-1.161-3.625Z" transform="translate(8.858 10.471)" fill="#241b15"/><path d="M30.645,29.6v5.427h-.394V29.05l-.432-.594h1.29l3.442,4.774V28.456h.394v6.616h-.326Z" transform="translate(10.974 10.471)" fill="#241b15"/><path d="M42.569,35.023H41.508V31.885H38.567v3.138H37.5V28.455h1.063v3.092h2.941V28.455h1.062Z" transform="translate(13.803 10.471)" fill="#241b15"/><path d="M46.328,28.384a3.16,3.16,0,0,1,3.053,3.263c0,.03,0,.06-.005.09a3.068,3.068,0,1,1-6.1.059,3.139,3.139,0,0,1,2.862-3.4c.063-.005.124-.01.187-.012m.079,6.431c1.159,0,1.859-1.248,1.859-2.826,0-1.832-.669-3.274-2.04-3.274-1.151,0-1.839,1.275-1.839,2.776,0,1.911.648,3.323,2.015,3.323" transform="translate(15.922 10.445)" fill="#241b15"/><path d="M51.938,35.023H50.877V28.787l-1.751.049v-.382H53.7v.382l-1.762-.049Z" transform="translate(18.08 10.471)" fill="#241b15"/><path d="M55.57,31.609H57.5v.331H55.57v2.733h2.862l-.01.342H54.51v-6.56h3.815l.01.332H55.57Z" transform="translate(20.062 10.471)" fill="#241b15"/><path d="M60.607,34.673,63.39,34.6l-.049.419h-3.8V28.456H60.6Z" transform="translate(21.914 10.472)" fill="#241b15"/><path d="M69.38,31.755v1.684c0,1.189-.84,1.706-2.075,1.706s-2.174-.663-2.174-1.813a1.815,1.815,0,0,1,1.711-1.773,1.707,1.707,0,0,1-1.475-1.638c0-.867.669-1.531,1.829-1.531,1.052,0,1.84.458,1.84,1.208,0,.439-.315.587-.748.673,0-.926-.343-1.569-1.042-1.569-.6,0-.885.458-.885,1.227a1.381,1.381,0,0,0,1.272,1.487l.1.005h2.311v.331Zm-.96,1.606V31.755H67.7a1.462,1.462,0,0,0-1.454,1.468c0,.044,0,.086.008.13,0,1.022.413,1.482,1.073,1.482.767,0,1.092-.633,1.092-1.472" transform="translate(23.971 10.447)" fill="#241b15"/><path d="M74.445,33.433c-.54-.963-.96-1.168-1.26-1.189H73v2.777H71.937V28.455h1.83c1.543,0,2.32.759,2.32,1.8a1.905,1.905,0,0,1-1.6,1.891,1.844,1.844,0,0,1,.926.886l.569,1.015c.335.6.551.809.96.809h.029l-.068.2a2.192,2.192,0,0,1-.59.059,1.461,1.461,0,0,1-1.368-.818ZM73,31.9H73.5a1.466,1.466,0,0,0,1.558-1.365,1.643,1.643,0,0,0,0-.233,1.394,1.394,0,0,0-1.484-1.52H73Z" transform="translate(26.475 10.471)" fill="#241b15"/><path d="M78.591,31.609H80.52v.331H78.591v2.733h2.862l-.01.342H77.529v-6.56h3.815l.01.332H78.6Z" transform="translate(28.534 10.471)" fill="#241b15"/><path d="M85.79,33.705c0-1.967-3.462-1.286-3.462-3.439a1.985,1.985,0,0,1,2.082-1.878l.1.007c.944,0,1.937.439,1.937,1.326a.823.823,0,0,1-.531.8c-.2-1.2-.817-1.8-1.614-1.8a1.03,1.03,0,0,0-1.134.914.863.863,0,0,0-.005.119c0,1.735,3.48,1.033,3.48,3.441,0,1.364-1.081,1.967-2.293,1.967-1.033,0-2.094-.35-2.094-1.227A1.084,1.084,0,0,1,82.789,33c.227,1.267,1.022,1.832,1.791,1.832a1.1,1.1,0,0,0,1.2-.971,1.021,1.021,0,0,0,0-.159" transform="translate(30.274 10.445)" fill="#241b15"/><path d="M90.475,28.384a3.159,3.159,0,0,1,3.053,3.264c0,.03,0,.059,0,.089a3.068,3.068,0,0,1-6.09.746,2.957,2.957,0,0,1-.007-.687,3.139,3.139,0,0,1,2.862-3.4c.062-.005.124-.01.186-.012m.079,6.431c1.16,0,1.859-1.248,1.859-2.826,0-1.832-.669-3.274-2.04-3.274-1.152,0-1.84,1.275-1.84,2.776,0,1.911.648,3.323,2.015,3.323" transform="translate(32.17 10.445)" fill="#241b15"/><path d="M96.564,33.433c-.542-.963-.955-1.168-1.26-1.189h-.186v2.777H94.055V28.455h1.829c1.543,0,2.322.759,2.322,1.8a1.909,1.909,0,0,1-1.6,1.891,1.847,1.847,0,0,1,.925.886l.57,1.015c.332.6.55.809.959.809h.029l-.07.2a2.182,2.182,0,0,1-.588.059,1.461,1.461,0,0,1-1.368-.818ZM95.123,31.9h.492a1.455,1.455,0,0,0,1.547-1.6,1.39,1.39,0,0,0-1.256-1.517,1.275,1.275,0,0,0-.228,0h-.561Z" transform="translate(34.616 10.471)" fill="#241b15"/><path d="M101.894,35.023h-1.062V28.787l-1.751.049v-.382h4.573v.382l-1.761-.049Z" transform="translate(36.466 10.471)" fill="#241b15"/></g></g></svg>