<?xml version="1.0" encoding="utf-8"?>
<!-- Generator: Adobe Illustrator 26.0.1, SVG Export Plug-In . SVG Version: 6.00 Build 0)  -->
<svg version="1.1" id="레이어_1" xmlns="http://www.w3.org/2000/svg" xmlns:xlink="http://www.w3.org/1999/xlink" x="0px"
	 y="0px" viewBox="0 0 78 41" style="enable-background:new 0 0 78 41;" xml:space="preserve">
<style type="text/css">
	.st0{enable-background:new    ;}
	.st1{fill:#FFFFFF;}
</style>
<g transform="matrix(1, 0, 0, 1, 0, 0)">
	<g class="st0">
		<path class="st1" d="M17.9,19.9l0.2,1.3c-2,0.4-3.7,0.5-6.5,0.5h-1.1v-9.6h6.6v1.3h-4.9v6.9C14.5,20.4,16.1,20.3,17.9,19.9z
			 M21.8,25.3h-1.6v-8h-3.9v-1.4h3.9v-5.1h1.6V25.3z"/>
		<path class="st1" d="M41.2,23.5H28.1v-1.4h5.7v-2.9h-4.2v-7.5h1.6v2.4h6.9v-2.4h1.6v7.5h-4.2v2.9h5.7V23.5z M38.1,17.9v-2.4h-6.9
			v2.4H38.1z"/>
		<path class="st1" d="M43.8,22.7l-0.9-1.3c3.8-1.8,5.6-4.4,5.9-7.7h-5.2v-1.3h6.9C50.5,16.6,48.8,20.3,43.8,22.7z M54.8,25.2h-1.6
			V10.8h1.6V25.2z"/>
		<path class="st1" d="M61.3,23.3v-1.7l5-3.3l-5-3.5v-1.7l6.5,4.5v1.3L61.3,23.3z"/>
	</g>
</g>
</svg>
