<?xml version="1.0" encoding="utf-8"?>
<!-- Generator: Adobe Illustrator 25.4.1, SVG Export Plug-In . SVG Version: 6.00 Build 0)  -->
<!DOCTYPE svg PUBLIC "-//W3C//DTD SVG 1.1//EN" "http://www.w3.org/Graphics/SVG/1.1/DTD/svg11.dtd" [
	<!ENTITY ns_extend "http://ns.adobe.com/Extensibility/1.0/">
	<!ENTITY ns_ai "http://ns.adobe.com/AdobeIllustrator/10.0/">
	<!ENTITY ns_graphs "http://ns.adobe.com/Graphs/1.0/">
	<!ENTITY ns_vars "http://ns.adobe.com/Variables/1.0/">
	<!ENTITY ns_imrep "http://ns.adobe.com/ImageReplacement/1.0/">
	<!ENTITY ns_sfw "http://ns.adobe.com/SaveForWeb/1.0/">
	<!ENTITY ns_custom "http://ns.adobe.com/GenericCustomNamespace/1.0/">
	<!ENTITY ns_adobe_xpath "http://ns.adobe.com/XPath/1.0/">
]>
<svg version="1.1" id="레이어_1" xmlns:x="&ns_extend;" xmlns:i="&ns_ai;" xmlns:graph="&ns_graphs;"
	 xmlns="http://www.w3.org/2000/svg" xmlns:xlink="http://www.w3.org/1999/xlink" x="0px" y="0px" width="20px" height="20px"
	 viewBox="0 0 20 20" style="enable-background:new 0 0 20 20;" xml:space="preserve">
<metadata>
	<sfw  xmlns="&ns_sfw;">
		<slices></slices>
		<sliceSourceBounds  bottomLeftOrigin="true" height="17" width="18" x="951" y="531.5"></sliceSourceBounds>
	</sfw>
</metadata>
<g>
	<path d="M18.999,17.151c-0.008-0.399-0.11-0.769-0.312-1.132c-1.118-2.008-2.257-4.045-3.359-6.016
		c-0.108-0.193-0.245-0.307-0.385-0.323c-0.128-0.014-0.251,0.052-0.355,0.191c-0.219,0.295-0.224,0.768-0.011,1.151l0.46,0.828
		c0.937,1.688,1.875,3.375,2.811,5.064c0.001,0.002,0.002,0.004,0.003,0.006H2.12c0.713-1.287,1.428-2.573,2.142-3.859l0.363-0.654
		c0.086-0.154,0.171-0.308,0.257-0.462c0.171-0.307,0.348-0.624,0.521-0.938c0.208-0.379,0.203-0.833-0.012-1.128
		c-0.22-0.301-0.524-0.255-0.739,0.112c-0.031,0.052-0.061,0.106-0.09,0.159l-0.714,1.292c-0.723,1.307-1.47,2.658-2.203,3.991
		c-0.029,0.052-0.058,0.104-0.087,0.156c-0.154,0.275-0.312,0.56-0.433,0.885c-0.139,0.377-0.164,0.805-0.067,1.172
		c0.098,0.371,0.305,0.643,0.582,0.766c0.13,0.058,0.243,0.086,0.345,0.086c2.156,0.001,4.49,0.003,6.927,0.003
		c2.933,0,6.014-0.002,9.108-0.007c0.165,0,0.353-0.072,0.53-0.202C18.851,18.071,19.01,17.666,18.999,17.151z"/>
	<path d="M6.369,9.576c0.123-0.036,0.246-0.094,0.367-0.173c0.091-0.06,0.181-0.127,0.267-0.191C7.12,9.125,7.231,9.042,7.345,8.975
		c0.126-0.074,0.258-0.127,0.398-0.184c0.012-0.005,0.023-0.009,0.035-0.014l0.001,0.008L7.9,8.781
		C8.25,8.77,8.537,8.917,8.777,9.228C9.133,9.689,9.581,9.92,10.03,9.92c0.442,0,0.885-0.225,1.24-0.674
		c0.135-0.171,0.283-0.3,0.415-0.361c0.395-0.184,0.752-0.141,1.092,0.131c0.313,0.251,0.596,0.43,0.866,0.548
		c0.202,0.089,0.409,0.007,0.552-0.219c0.146-0.23,0.198-0.571,0.135-0.89c-0.047-0.237-0.136-0.483-0.252-0.693
		c-1.171-2.128-2.136-3.871-3.038-5.483C10.761,1.776,10.394,1.5,10.007,1.5c-0.001,0-0.002,0-0.003,0
		C9.611,1.501,9.237,1.787,8.95,2.304C8.69,2.773,8.43,3.243,8.17,3.712c-0.731,1.317-1.486,2.68-2.227,4.023
		c-0.104,0.188-0.186,0.399-0.239,0.61C5.62,8.683,5.65,9.034,5.784,9.284C5.919,9.534,6.138,9.643,6.369,9.576z M7.465,7.298
		l1.82-3.285c0.041-0.074,0.081-0.148,0.122-0.222c0.1-0.182,0.203-0.371,0.308-0.55C9.797,3.1,9.898,3.022,9.999,3.022
		c0.001,0,0.002,0,0.003,0c0.1,0.002,0.195,0.077,0.274,0.218c0.643,1.148,1.293,2.319,1.923,3.451l0.323,0.582
		c-0.022-0.006-0.045-0.012-0.067-0.017c-0.632-0.138-1.19,0.071-1.659,0.621c-0.261,0.307-0.496,0.505-0.792,0.479
		C9.759,8.334,9.59,8.245,9.456,8.07C9.022,7.501,8.524,7.214,7.972,7.214c-0.059,0-0.118,0.003-0.179,0.01
		C7.682,7.236,7.572,7.264,7.465,7.298z"/>
</g>
</svg>
