<svg xmlns="http://www.w3.org/2000/svg" width="17.333" height="20.699" viewBox="0 0 17.333 20.699"><g transform="translate(0.25 0.25)"><path d="M21.067,13.11a.34.34,0,0,0-.343.337v6.06H15.235V4.694h5.489v6.06a.343.343,0,0,0,.686,0v-6.4a.34.34,0,0,0-.343-.337H15.235V2.337a.335.335,0,0,0-.135-.268.352.352,0,0,0-.3-.057L7.254,4.032A.338.338,0,0,0,7,4.357V19.844a.338.338,0,0,0,.253.325l7.548,2.02a.349.349,0,0,0,.3-.057.335.335,0,0,0,.135-.268V20.18h5.832a.34.34,0,0,0,.343-.337v-6.4A.34.34,0,0,0,21.067,13.11Zm-6.519,8.312L7.687,19.586V4.614l6.862-1.836V21.423Z" transform="translate(-7.001 -2)" fill="#ee7500"/><path d="M14.891,22.45a.6.6,0,0,1-.155-.02L7.189,20.41a.589.589,0,0,1-.438-.566V4.357a.589.589,0,0,1,.438-.566l7.548-2.02a.605.605,0,0,1,.513.1.589.589,0,0,1,.235.468V3.77h5.582a.591.591,0,0,1,.593.587v6.4a.593.593,0,0,1-1.186,0V4.944H15.485V19.257h4.989v-5.81a.593.593,0,0,1,1.186,0v6.4a.591.591,0,0,1-.593.587H15.485v1.433a.588.588,0,0,1-.234.467A.6.6,0,0,1,14.891,22.45Zm0-20.2a.1.1,0,0,0-.026,0L7.318,4.274a.088.088,0,0,0-.068.083V19.844a.089.089,0,0,0,.068.083l7.548,2.02a.1.1,0,0,0,.084-.016.086.086,0,0,0,.034-.067V19.93h6.082a.09.09,0,0,0,.093-.087v-6.4a.093.093,0,0,0-.186,0v6.31H14.985V4.444h5.989v6.31a.093.093,0,0,0,.186,0v-6.4a.09.09,0,0,0-.093-.087H14.985V2.337a.086.086,0,0,0-.035-.068A.1.1,0,0,0,14.891,2.25Zm-.093,19.5-7.362-1.97V4.422L14.8,2.452ZM7.937,19.395,14.3,21.1V3.1l-6.362,1.7Z" transform="translate(-7.001 -2)" fill="#ee7500"/><path d="M43.037,28.63a.3.3,0,0,0-.066-.33L41.76,27.088a.3.3,0,1,0-.428.428l.695.695H37.3a.3.3,0,0,0-.3.3v1.818a.3.3,0,1,0,.606,0V28.818h4.42l-.695.695a.3.3,0,1,0,.428.428l1.212-1.212A.3.3,0,0,0,43.037,28.63Z" transform="translate(-26.227 -18.373)" fill="#ee7500"/><path d="M41.546,26.75a.549.549,0,0,1,.391.162l1.212,1.212a.55.55,0,0,1,.12.18.557.557,0,0,1,0,.423.551.551,0,0,1-.12.18l-1.212,1.212a.553.553,0,1,1-.782-.782l.268-.268H37.857v1.265a.553.553,0,1,1-1.106,0V28.515a.554.554,0,0,1,.553-.553h4.119l-.268-.268a.553.553,0,0,1,.391-.944Zm0,3.03a.052.052,0,0,0,.037-.016l1.212-1.212a.054.054,0,0,0,.011-.058.053.053,0,0,0-.011-.017l-1.212-1.212a.053.053,0,0,0-.075,0,.053.053,0,0,0,0,.075l1.122,1.122H37.3a.053.053,0,0,0-.053.053v1.818a.053.053,0,1,0,.106,0V28.568H42.63l-1.122,1.122a.053.053,0,0,0,0,.075A.052.052,0,0,0,41.546,29.78Z" transform="translate(-26.227 -18.373)" fill="#ee7500"/><path d="M21.91,27c-.51,0-.909.532-.909,1.212s.4,1.212.909,1.212.909-.532.909-1.212S22.419,27,21.91,27Zm0,1.818c-.124,0-.3-.236-.3-.606s.179-.606.3-.606.3.236.3.606S22.033,28.818,21.91,28.818Z" transform="translate(-16.223 -18.454)" fill="#ee7500"/><path d="M21.91,26.75a1.323,1.323,0,0,1,1.159,1.462,1.323,1.323,0,0,1-1.159,1.462,1.323,1.323,0,0,1-1.159-1.462A1.323,1.323,0,0,1,21.91,26.75Zm0,2.424c.363,0,.659-.432.659-.962s-.3-.962-.659-.962-.659.432-.659.962S21.546,29.174,21.91,29.174Zm0-1.818c.3,0,.553.384.553.856s-.248.856-.553.856-.553-.384-.553-.856S21.6,27.356,21.91,27.356Zm0,1.135a.762.762,0,0,0,0-.559.762.762,0,0,0,0,.559Z" transform="translate(-16.223 -18.454)" fill="#ee7500"/></g></svg>