<svg xmlns="http://www.w3.org/2000/svg" width="13.993" height="23.549" viewBox="0 0 13.993 23.549"><g transform="translate(-28.85 -21.85)"><g transform="translate(29 22)"><path d="M41.339,40.827H36.987V39.686h4.351a.213.213,0,0,0,.213-.213V23.354a.213.213,0,0,0-.213-.213h-11.2V40.257H29V22H41.339a1.355,1.355,0,0,1,1.354,1.354V39.474A1.355,1.355,0,0,1,41.339,40.827Z" transform="translate(-29 -22)" fill="#ee7500"/><path d="M41.339,40.977h-4.5V39.536h4.5a.063.063,0,0,0,.063-.063V23.354a.063.063,0,0,0-.063-.063H30.291V40.407H28.85V21.85H41.339a1.506,1.506,0,0,1,1.5,1.5V39.474A1.506,1.506,0,0,1,41.339,40.977Zm-4.2-.3h4.2a1.205,1.205,0,0,0,1.2-1.2V23.354a1.206,1.206,0,0,0-1.2-1.2H29.15V40.107h.841V22.991H41.339a.364.364,0,0,1,.363.363V39.473a.364.364,0,0,1-.363.363h-4.2Z" transform="translate(-29 -22)" fill="#ee7500"/></g><g transform="translate(29 22.143)"><path d="M36.763,45.357a.746.746,0,0,1-.395-.113L29.355,40.9A.747.747,0,0,1,29,40.264V23a.75.75,0,0,1,1.146-.638L37.159,26.7a.744.744,0,0,1,.356.638V44.605A.752.752,0,0,1,36.763,45.357Zm-6.622-5.31L36.374,43.9V27.561L30.141,23.7Z" transform="translate(-29 -22.251)" fill="#ee7500"/><path d="M36.763,45.507a.9.9,0,0,1-.474-.136l-7.012-4.34a.9.9,0,0,1-.426-.767V23a.9.9,0,0,1,1.375-.765l7.013,4.34a.892.892,0,0,1,.427.766V44.605A.9.9,0,0,1,36.763,45.507ZM29.751,22.4a.6.6,0,0,0-.6.6V40.264a.6.6,0,0,0,.285.512l7.012,4.34a.6.6,0,0,0,.918-.511V27.343a.594.594,0,0,0-.284-.511l-7.013-4.341A.6.6,0,0,0,29.751,22.4Zm6.773,21.773L29.991,40.13v-16.7l6.532,4.044Zm-6.232-4.211,5.932,3.672V27.644l-5.932-3.673Z" transform="translate(-29 -22.251)" fill="#ee7500"/></g><g transform="translate(34.705 33.411)"><rect width="1.141" height="2.282" transform="translate(0)" fill="#ee7500"/><path d="M-.15-.15H1.291V2.432H-.15ZM.991.15H.15V2.132H.991Z" transform="translate(0)" fill="#ee7500"/></g></g></svg>