<?xml version="1.0" encoding="utf-8"?>
<!-- Generator: Adobe Illustrator 25.4.1, SVG Export Plug-In . SVG Version: 6.00 Build 0)  -->
<!DOCTYPE svg PUBLIC "-//W3C//DTD SVG 1.1//EN" "http://www.w3.org/Graphics/SVG/1.1/DTD/svg11.dtd" [
	<!ENTITY ns_extend "http://ns.adobe.com/Extensibility/1.0/">
	<!ENTITY ns_ai "http://ns.adobe.com/AdobeIllustrator/10.0/">
	<!ENTITY ns_graphs "http://ns.adobe.com/Graphs/1.0/">
	<!ENTITY ns_vars "http://ns.adobe.com/Variables/1.0/">
	<!ENTITY ns_imrep "http://ns.adobe.com/ImageReplacement/1.0/">
	<!ENTITY ns_sfw "http://ns.adobe.com/SaveForWeb/1.0/">
	<!ENTITY ns_custom "http://ns.adobe.com/GenericCustomNamespace/1.0/">
	<!ENTITY ns_adobe_xpath "http://ns.adobe.com/XPath/1.0/">
]>
<svg version="1.1" id="레이어_1" xmlns:x="&ns_extend;" xmlns:i="&ns_ai;" xmlns:graph="&ns_graphs;"
	 xmlns="http://www.w3.org/2000/svg" xmlns:xlink="http://www.w3.org/1999/xlink" x="0px" y="0px" width="20px" height="20px"
	 viewBox="0 0 20 20" style="enable-background:new 0 0 20 20;" xml:space="preserve">
<style type="text/css">
	.st0{fill:#FFFFFF;}
</style>
<metadata>
	<sfw  xmlns="&ns_sfw;">
		<slices></slices>
		<sliceSourceBounds  bottomLeftOrigin="true" height="10.013" width="18" x="951" y="534.994"></sliceSourceBounds>
	</sfw>
</metadata>
<g>
	<path d="M9.85,10.606c2.711,0,5.422,0,8.132,0c0.487,0,0.713,0.226,0.714,0.712c0,0.994,0,1.989,0,2.983
		c0,0.473-0.232,0.704-0.706,0.704c-5.427,0-10.854,0-16.281,0C1.222,15.006,1,14.783,1,14.292c0-1.005,0-2.011,0-3.016
		c0-0.435,0.235-0.669,0.668-0.669C4.395,10.606,7.123,10.606,9.85,10.606z M17.491,11.818c-4.103,0-8.193,0-12.282,0
		c0,0.665,0,1.319,0,1.975c4.098,0,8.187,0,12.282,0C17.491,13.133,17.491,12.484,17.491,11.818z M2.207,13.794
		c0.604,0,1.194,0,1.779,0c0-0.669,0-1.326,0-1.979c-0.6,0-1.186,0-1.779,0C2.207,12.477,2.207,13.13,2.207,13.794z"/>
	<path d="M14.753,9.443c0.002-0.216,0.091-0.385,0.269-0.507c0.082-0.057,0.168-0.109,0.245-0.172
		c0.173-0.142,0.197-0.383,0.039-0.542c-0.132-0.133-0.284-0.248-0.431-0.366c-0.425-0.343-0.694-0.77-0.671-1.33
		c0.028-0.672,0.403-1.138,0.959-1.465c0.252-0.148,0.583-0.031,0.742,0.22c0.163,0.257,0.112,0.588-0.123,0.782
		c-0.064,0.053-0.136,0.096-0.203,0.146C15.337,6.39,15.321,6.63,15.545,6.84c0.117,0.11,0.248,0.205,0.373,0.307
		c0.396,0.323,0.661,0.72,0.68,1.245c0.02,0.533-0.223,0.951-0.604,1.3c-0.106,0.097-0.221,0.188-0.345,0.26
		C15.253,10.186,14.758,9.901,14.753,9.443z"/>
	<path d="M19,8.455c0,0.59-0.478,1.319-1.023,1.529c-0.116,0.045-0.264,0.047-0.387,0.021c-0.231-0.048-0.375-0.212-0.422-0.443
		c-0.05-0.244,0.025-0.451,0.224-0.605c0.079-0.061,0.167-0.11,0.246-0.171c0.217-0.168,0.238-0.41,0.036-0.6
		c-0.198-0.186-0.426-0.341-0.614-0.536c-0.454-0.47-0.583-1.024-0.35-1.641c0.15-0.397,0.433-0.696,0.789-0.921
		c0.263-0.167,0.605-0.091,0.786,0.158c0.185,0.255,0.143,0.608-0.1,0.811c-0.072,0.06-0.155,0.108-0.229,0.167
		c-0.207,0.162-0.226,0.405-0.037,0.589c0.119,0.116,0.253,0.216,0.383,0.321C18.725,7.474,18.995,7.894,19,8.455z"/>
	<path class="st0" d="M17.491,11.818c0,0.665,0,1.314,0,1.975c-4.095,0-8.184,0-12.282,0c0-0.657,0-1.31,0-1.975
		C9.298,11.818,13.388,11.818,17.491,11.818z"/>
	<path class="st0" d="M2.207,13.794c0-0.664,0-1.317,0-1.979c0.593,0,1.18,0,1.779,0c0,0.653,0,1.31,0,1.979
		C3.401,13.794,2.811,13.794,2.207,13.794z"/>
</g>
</svg>
