<?xml version="1.0" encoding="utf-8"?>
<!-- Generator: Adobe Illustrator 26.0.1, SVG Export Plug-In . SVG Version: 6.00 Build 0)  -->
<svg version="1.1" id="레이어_1" xmlns="http://www.w3.org/2000/svg" xmlns:xlink="http://www.w3.org/1999/xlink" x="0px"
	 y="0px" viewBox="0 0 43.3 19" style="enable-background:new 0 0 43.3 19;" xml:space="preserve">
<style type="text/css">
	.st0{enable-background:new    ;}
	.st1{fill:#555555;}
</style>
<g transform="translate(-364.682 -378)">
	<g transform="translate(0 3.566)">
		<g transform="translate(365.397 374.137)">
			<g transform="translate(14.532 0)">
				<g class="st0">
					<path class="st1" d="M8.2,8.7c0,2.9-1.4,4.7-3.4,4.7c-2,0-3.4-1.8-3.4-4.7C1.4,5.8,2.8,4,4.8,4C6.8,4,8.2,5.8,8.2,8.7z
						 M2.5,8.7c0,2.2,0.9,3.6,2.2,3.6c1.3,0,2.2-1.4,2.2-3.6c0-2.2-0.9-3.6-2.2-3.6C3.5,5.1,2.5,6.5,2.5,8.7z M10.6,16.4V3h1.2v13.5
						H10.6z"/>
					<path class="st1" d="M18.7,7.8c-0.6,1.6-1.8,2.8-3.4,3.3l-0.6-1c2-0.7,3.4-2.5,3.4-4.4V5.1h-3V4h7.2v1h-3v0.7
						c0,1.7,1.3,3.5,3.3,4.1l-0.6,1C20.5,10.3,19.3,9.1,18.7,7.8z M17.1,16.1V12h1.2v3.1h7.7v1H17.1z M25.8,3v9.9h-1.2V7.7h-2.7v-1
						h2.7V3H25.8z"/>
				</g>
			</g>
			<g transform="translate(0 2.357)">
				<path class="st1" d="M7,14.8l-7.7-7.3L7-0.4l0.7,0.7l-7,7.2l7,6.6L7,14.8z"/>
			</g>
		</g>
	</g>
</g>
</svg>
