<?xml version="1.0" encoding="utf-8"?>
<!-- Generator: Adobe Illustrator 25.4.1, SVG Export Plug-In . SVG Version: 6.00 Build 0)  -->
<!DOCTYPE svg PUBLIC "-//W3C//DTD SVG 1.1//EN" "http://www.w3.org/Graphics/SVG/1.1/DTD/svg11.dtd" [
	<!ENTITY ns_extend "http://ns.adobe.com/Extensibility/1.0/">
	<!ENTITY ns_ai "http://ns.adobe.com/AdobeIllustrator/10.0/">
	<!ENTITY ns_graphs "http://ns.adobe.com/Graphs/1.0/">
	<!ENTITY ns_vars "http://ns.adobe.com/Variables/1.0/">
	<!ENTITY ns_imrep "http://ns.adobe.com/ImageReplacement/1.0/">
	<!ENTITY ns_sfw "http://ns.adobe.com/SaveForWeb/1.0/">
	<!ENTITY ns_custom "http://ns.adobe.com/GenericCustomNamespace/1.0/">
	<!ENTITY ns_adobe_xpath "http://ns.adobe.com/XPath/1.0/">
]>
<svg version="1.1" id="레이어_1" xmlns:x="&ns_extend;" xmlns:i="&ns_ai;" xmlns:graph="&ns_graphs;"
	 xmlns="http://www.w3.org/2000/svg" xmlns:xlink="http://www.w3.org/1999/xlink" x="0px" y="0px" width="20px" height="20px"
	 viewBox="0 0 20 20" style="enable-background:new 0 0 20 20;" xml:space="preserve">
<style type="text/css">
	.st0{fill:#FFFFFF;}
</style>
<metadata>
	<sfw  xmlns="&ns_sfw;">
		<slices></slices>
		<sliceSourceBounds  bottomLeftOrigin="true" height="17.995" width="18" x="951" y="531.003"></sliceSourceBounds>
	</sfw>
</metadata>
<g>
	<path d="M2.248,8.669C1.922,8.541,1.642,8.358,1.423,8.09C1.151,7.757,1.008,7.376,1.004,6.947C0.999,6.478,0.998,6.009,1.006,5.54
		C1.008,5.442,1.04,5.334,1.089,5.248c0.678-1.193,1.358-2.385,2.044-3.574c0.258-0.448,0.657-0.671,1.174-0.671
		c3.794-0.001,7.589-0.001,11.383,0c0.524,0,0.922,0.23,1.183,0.684c0.678,1.181,1.355,2.362,2.026,3.546
		c0.056,0.099,0.089,0.224,0.092,0.338c0.01,0.452,0.012,0.905,0.002,1.357c-0.017,0.755-0.373,1.308-1.043,1.646
		c-0.148,0.075-0.185,0.153-0.185,0.307c0.004,2.928,0.002,5.855,0.005,8.783c0.001,0.43-0.132,0.792-0.471,1.064
		c-0.239,0.191-0.515,0.268-0.821,0.268c-2.595-0.002-5.19-0.001-7.785-0.001c-1.712,0-3.424,0-5.136,0
		c-0.788,0-1.309-0.523-1.309-1.313c0-2.939,0-5.877,0-8.816C2.248,8.802,2.248,8.737,2.248,8.669z M9.577,18.166
		c0.04,0.006,0.056,0.011,0.072,0.011c2.295,0.001,4.59,0.001,6.885,0c0.245,0,0.396-0.15,0.415-0.392
		c0.003-0.043,0.002-0.087,0.002-0.131c0-2.905,0-5.811,0-8.716c0-0.016-0.002-0.033,0-0.049c0.015-0.102-0.031-0.145-0.13-0.161
		c-0.28-0.044-0.532-0.158-0.755-0.331c-0.119-0.092-0.227-0.199-0.34-0.299c-0.855,0.964-2.158,0.836-2.869-0.013
		c-0.375,0.434-0.842,0.684-1.424,0.687c-0.586,0.002-1.054-0.256-1.435-0.686C9.211,8.993,7.922,9.002,7.132,8.083
		C6.757,8.517,6.291,8.768,5.71,8.771C5.123,8.773,4.655,8.515,4.269,8.079C3.944,8.461,3.545,8.678,3.066,8.755
		c0,0.067,0,0.121,0,0.176c0,2.911,0,5.822,0,8.733c0,0.049-0.003,0.099,0.003,0.147c0.021,0.186,0.148,0.35,0.328,0.357
		c0.423,0.015,0.847,0.005,1.286,0.005c0-0.082,0-0.152,0-0.222c0-2.186,0.005-4.372-0.004-6.558
		c-0.002-0.382,0.128-0.586,0.587-0.58c1.264,0.015,2.529,0.005,3.794,0.005c0.383,0,0.518,0.136,0.518,0.523
		c0,2.208,0,4.415,0,6.623C9.577,18.028,9.577,18.093,9.577,18.166z M17.871,5.088c-0.031-0.06-0.05-0.099-0.071-0.136
		c-0.538-0.94-1.08-1.879-1.614-2.822c-0.124-0.219-0.295-0.312-0.545-0.312c-3.761,0.003-7.523,0.003-11.284,0
		c-0.258,0-0.428,0.102-0.554,0.325c-0.531,0.938-1.07,1.872-1.605,2.808c-0.023,0.04-0.041,0.084-0.067,0.136
		C7.382,5.088,12.615,5.088,17.871,5.088z M8.747,18.17c0-1.638,0-3.264,0-4.886c-1.087,0-2.162,0-3.236,0c0,1.635,0,3.256,0,4.886
		C6.592,18.17,7.663,18.17,8.747,18.17z M7.55,5.915c0,0.388-0.023,0.764,0.006,1.137c0.04,0.528,0.496,0.91,1.026,0.901
		c0.531-0.009,0.955-0.391,0.997-0.914c0.018-0.228,0.009-0.457,0.011-0.686c0.001-0.144,0-0.288,0-0.437
		C8.898,5.915,8.234,5.915,7.55,5.915z M12.45,5.924c-0.689,0-1.361,0-2.033,0c0,0.384-0.02,0.755,0.005,1.124
		c0.035,0.526,0.486,0.912,1.019,0.905c0.541-0.007,0.982-0.41,1.007-0.942C12.463,6.653,12.45,6.293,12.45,5.924z M13.275,5.916
		c0,0.385-0.021,0.761,0.005,1.134c0.034,0.486,0.425,0.852,0.91,0.897c0.501,0.046,0.979-0.236,1.067-0.715
		c0.078-0.426,0.055-0.871,0.077-1.315C14.625,5.916,13.961,5.916,13.275,5.916z M16.14,5.917c0,0.382-0.018,0.748,0.004,1.112
		c0.031,0.516,0.433,0.89,0.954,0.922c0.507,0.031,0.977-0.292,1.042-0.794c0.053-0.405,0.011-0.822,0.011-1.24
		C17.491,5.917,16.823,5.917,16.14,5.917z M3.856,5.922c-0.684,0-1.356,0-2.033,0c0,0.376-0.017,0.742,0.004,1.105
		C1.858,7.559,2.31,7.956,2.848,7.952c0.535-0.003,0.973-0.391,1.004-0.921C3.874,6.668,3.856,6.302,3.856,5.922z M6.725,5.923
		c-0.689,0-1.361,0-2.034,0c0,0.378-0.018,0.744,0.004,1.107c0.032,0.537,0.48,0.928,1.02,0.921c0.54-0.006,0.981-0.408,1.006-0.941
		C6.739,6.653,6.725,6.293,6.725,5.923z M8.752,11.648c-1.093,0-2.167,0-3.241,0c0,0.272,0,0.531,0,0.795c1.085,0,2.16,0,3.241,0
		C8.752,12.174,8.752,11.914,8.752,11.648z"/>
	<path class="st0" d="M9.577,18.166c0-0.074,0-0.138,0-0.203c0-2.208,0-4.415,0-6.623c0-0.387-0.135-0.523-0.518-0.523
		c-1.265,0-2.529,0.01-3.794-0.005c-0.459-0.006-0.588,0.198-0.587,0.58c0.009,2.186,0.004,4.372,0.004,6.558c0,0.07,0,0.14,0,0.222
		c-0.439,0-0.863,0.01-1.286-0.005c-0.179-0.006-0.307-0.17-0.328-0.357c-0.005-0.049-0.003-0.098-0.003-0.147
		c0-2.911,0-5.822,0-8.733c0-0.054,0-0.108,0-0.176c0.479-0.078,0.878-0.294,1.203-0.676C4.655,8.515,5.123,8.773,5.71,8.771
		c0.581-0.003,1.047-0.254,1.422-0.687c0.789,0.919,2.078,0.91,2.866,0.001c0.381,0.429,0.849,0.688,1.435,0.686
		c0.582-0.002,1.048-0.253,1.424-0.687c0.711,0.85,2.014,0.977,2.869,0.013c0.113,0.1,0.221,0.207,0.34,0.299
		c0.223,0.173,0.475,0.287,0.755,0.331c0.1,0.016,0.146,0.059,0.13,0.161c-0.002,0.016,0,0.033,0,0.049c0,2.905,0,5.811,0,8.716
		c0,0.044,0.001,0.087-0.002,0.131c-0.019,0.242-0.17,0.392-0.415,0.392c-2.295,0.002-4.59,0.001-6.885,0
		C9.632,18.177,9.616,18.173,9.577,18.166z M13.269,10.817c-0.665,0-1.33-0.001-1.995,0c-0.294,0.001-0.456,0.162-0.457,0.454
		c-0.001,0.921-0.001,1.843,0,2.764c0,0.297,0.155,0.459,0.451,0.46c1.336,0.003,2.671,0.003,4.007,0.001
		c0.295-0.001,0.448-0.164,0.449-0.462c0.001-0.916,0.001-1.832,0-2.748c0-0.313-0.159-0.468-0.475-0.469
		C14.588,10.817,13.929,10.817,13.269,10.817z"/>
	<path class="st0" d="M17.871,5.088c-5.257,0-10.489,0-15.741,0c0.026-0.053,0.044-0.096,0.067-0.136
		c0.536-0.936,1.075-1.87,1.605-2.808C3.929,1.92,4.099,1.818,4.357,1.818c3.761,0.004,7.523,0.003,11.284,0
		c0.25,0,0.421,0.093,0.545,0.312c0.534,0.943,1.076,1.882,1.614,2.822C17.822,4.989,17.84,5.028,17.871,5.088z"/>
	<path class="st0" d="M8.747,18.17c-1.083,0-2.155,0-3.236,0c0-1.629,0-3.251,0-4.886c1.075,0,2.15,0,3.236,0
		C8.747,14.906,8.747,16.532,8.747,18.17z"/>
	<path class="st0" d="M7.55,5.915c0.684,0,1.348,0,2.04,0c0,0.149,0.001,0.293,0,0.437C9.587,6.581,9.597,6.811,9.579,7.039
		C9.536,7.562,9.112,7.944,8.582,7.953C8.052,7.962,7.596,7.58,7.556,7.052C7.527,6.68,7.55,6.303,7.55,5.915z"/>
	<path class="st0" d="M12.45,5.924c0,0.369,0.013,0.729-0.003,1.087c-0.024,0.532-0.466,0.935-1.007,0.942
		c-0.533,0.006-0.984-0.379-1.019-0.905c-0.024-0.369-0.005-0.74-0.005-1.124C11.089,5.924,11.761,5.924,12.45,5.924z"/>
	<path class="st0" d="M13.275,5.916c0.686,0,1.35,0,2.059,0c-0.022,0.444,0.002,0.889-0.077,1.315
		c-0.088,0.479-0.566,0.762-1.067,0.715c-0.485-0.045-0.876-0.411-0.91-0.897C13.254,6.677,13.275,6.301,13.275,5.916z"/>
	<path class="st0" d="M16.14,5.917c0.683,0,1.351,0,2.011,0c0,0.418,0.042,0.835-0.011,1.24c-0.065,0.501-0.535,0.825-1.042,0.794
		c-0.521-0.032-0.922-0.406-0.954-0.922C16.122,6.666,16.14,6.3,16.14,5.917z"/>
	<path class="st0" d="M3.856,5.922c0,0.38,0.018,0.746-0.004,1.109c-0.032,0.53-0.469,0.918-1.004,0.921
		C2.31,7.956,1.858,7.559,1.827,7.027C1.806,6.663,1.823,6.298,1.823,5.922C2.5,5.922,3.172,5.922,3.856,5.922z"/>
	<path class="st0" d="M6.725,5.923c0,0.369,0.014,0.729-0.003,1.087C6.696,7.544,6.255,7.946,5.715,7.952
		c-0.541,0.006-0.988-0.385-1.02-0.921C4.673,6.667,4.691,6.301,4.691,5.923C5.364,5.923,6.036,5.923,6.725,5.923z"/>
	<path class="st0" d="M8.752,11.648c0,0.266,0,0.525,0,0.795c-1.081,0-2.155,0-3.241,0c0-0.263,0-0.522,0-0.795
		C6.585,11.648,7.66,11.648,8.752,11.648z"/>
	<path d="M13.269,10.817c0.66,0,1.319-0.001,1.979,0c0.317,0,0.475,0.156,0.475,0.469c0.001,0.916,0.001,1.832,0,2.748
		c0,0.298-0.154,0.462-0.449,0.462c-1.336,0.003-2.671,0.002-4.007-0.001c-0.296-0.001-0.45-0.163-0.451-0.46
		c-0.001-0.921-0.001-1.843,0-2.764c0-0.293,0.163-0.454,0.457-0.454C11.939,10.816,12.604,10.817,13.269,10.817z M11.64,13.667
		c1.094,0,2.174,0,3.253,0c0-0.684,0-1.355,0-2.019c-1.093,0-2.173,0-3.253,0C11.64,12.325,11.64,12.989,11.64,13.667z"/>
	<path class="st0" d="M11.64,13.667c0-0.679,0-1.342,0-2.019c1.08,0,2.16,0,3.253,0c0,0.664,0,1.335,0,2.019
		C13.814,13.667,12.734,13.667,11.64,13.667z"/>
</g>
</svg>
