<svg xmlns="http://www.w3.org/2000/svg" width="17.554" height="18.911" viewBox="0 0 17.554 18.911"><g transform="translate(-1092.509 -155.21)"><g transform="translate(1092.659 155.36)"><g transform="translate(0 0)"><path d="M134.58,9.16A4.58,4.58,0,1,0,130,4.58,4.58,4.58,0,0,0,134.58,9.16Zm0-7.8a3.215,3.215,0,1,1-3.215,3.215,3.215,3.215,0,0,1,3.215-3.215Z" transform="translate(-125.953)" fill="#ee7500"/><path d="M134.58,9.31h0a4.73,4.73,0,1,1,4.73-4.73A4.744,4.744,0,0,1,134.58,9.31Zm0-9.16a4.43,4.43,0,1,0,4.43,4.43A4.435,4.435,0,0,0,134.58.15Zm0,7.794a3.364,3.364,0,0,1-.15-6.725v0l.15,0a3.365,3.365,0,0,1,0,6.73Zm.1-6.428h-.1a3.011,3.011,0,1,0,.1,0Z" transform="translate(-125.953)" fill="#ee7500"/><path d="M20.025,283.29a7.261,7.261,0,1,1,14.522,0h1.366a8.627,8.627,0,0,0-17.254,0Z" transform="translate(-18.659 -264.68)" fill="#ee7500"/><path d="M36.063,283.44H34.4v-.15a7.111,7.111,0,1,0-14.222,0v.15H18.51v-.15a8.777,8.777,0,0,1,17.554,0Zm-1.367-.3h1.066a8.477,8.477,0,0,0-16.952,0h1.067a7.411,7.411,0,0,1,14.819,0Z" transform="translate(-18.659 -264.68)" fill="#ee7500"/></g></g></g></svg>