<?xml version="1.0" encoding="utf-8"?>
<!-- Generator: Adobe Illustrator 25.4.1, SVG Export Plug-In . SVG Version: 6.00 Build 0)  -->
<!DOCTYPE svg PUBLIC "-//W3C//DTD SVG 1.1//EN" "http://www.w3.org/Graphics/SVG/1.1/DTD/svg11.dtd" [
	<!ENTITY ns_extend "http://ns.adobe.com/Extensibility/1.0/">
	<!ENTITY ns_ai "http://ns.adobe.com/AdobeIllustrator/10.0/">
	<!ENTITY ns_graphs "http://ns.adobe.com/Graphs/1.0/">
	<!ENTITY ns_vars "http://ns.adobe.com/Variables/1.0/">
	<!ENTITY ns_imrep "http://ns.adobe.com/ImageReplacement/1.0/">
	<!ENTITY ns_sfw "http://ns.adobe.com/SaveForWeb/1.0/">
	<!ENTITY ns_custom "http://ns.adobe.com/GenericCustomNamespace/1.0/">
	<!ENTITY ns_adobe_xpath "http://ns.adobe.com/XPath/1.0/">
]>
<svg version="1.1" id="레이어_1" xmlns:x="&ns_extend;" xmlns:i="&ns_ai;" xmlns:graph="&ns_graphs;"
	 xmlns="http://www.w3.org/2000/svg" xmlns:xlink="http://www.w3.org/1999/xlink" x="0px" y="0px" width="20px" height="20px"
	 viewBox="0 0 20 20" style="enable-background:new 0 0 20 20;" xml:space="preserve">
<metadata>
	<sfw  xmlns="&ns_sfw;">
		<slices></slices>
		<sliceSourceBounds  bottomLeftOrigin="true" height="15.243" width="18" x="951" y="531.886"></sliceSourceBounds>
	</sfw>
</metadata>
<g>
	<path d="M1.012,14.016c0.177-0.215,0.337-0.41,0.499-0.604c1.151-1.384,2.302-2.767,3.453-4.15C5.185,8.996,5.341,9,5.562,9.271
		c0.286,0.352,0.576,0.703,0.877,1.07c0.192-0.25,0.376-0.49,0.559-0.73c1.099-1.443,2.197-2.887,3.296-4.33
		c0.165-0.217,0.351-0.226,0.518-0.018c0.898,1.119,1.793,2.24,2.699,3.372c-0.119,0.151-0.238,0.301-0.364,0.461
		c-0.865-1.082-1.719-2.149-2.581-3.226c-0.467,0.614-0.924,1.213-1.381,1.813c-0.817,1.074-1.634,2.147-2.452,3.22
		c-0.193,0.253-0.361,0.257-0.565,0.011c-0.258-0.312-0.513-0.626-0.77-0.939C5.354,9.922,5.309,9.869,5.257,9.808
		c-0.372,0.447-0.736,0.883-1.1,1.32c-0.774,0.93-1.548,1.859-2.319,2.791c-0.065,0.079-0.123,0.115-0.236,0.103
		C1.417,14.001,1.229,14.016,1.012,14.016z"/>
	<path d="M17.445,15.438c-0.23-0.064-0.48-0.111-0.712-0.204c-0.35-0.14-0.683-0.146-1.027,0.01c-0.485,0.22-0.975,0.22-1.46-0.002
		c-0.338-0.155-0.673-0.159-1.011-0.006c-0.496,0.224-0.993,0.225-1.489,0.001c-0.338-0.153-0.673-0.149-1.011,0.004
		c-0.485,0.219-0.976,0.222-1.462,0.003c-0.349-0.157-0.69-0.156-1.039,0.001c-0.491,0.22-0.985,0.213-1.475-0.012
		c-0.332-0.152-0.663-0.15-0.996,0.004c-0.495,0.229-0.992,0.228-1.487,0c-0.338-0.156-0.671-0.152-1.009,0.004
		c-0.49,0.226-0.98,0.217-1.476,0.004c-0.147-0.063-0.313-0.095-0.473-0.114c-0.198-0.023-0.318-0.125-0.313-0.306
		c0.005-0.17,0.127-0.29,0.324-0.264c0.234,0.03,0.473,0.073,0.691,0.16c0.35,0.14,0.682,0.15,1.025-0.007
		c0.485-0.223,0.975-0.223,1.46,0c0.349,0.16,0.689,0.158,1.037-0.002c0.474-0.218,0.956-0.222,1.432-0.006
		c0.359,0.163,0.708,0.164,1.068,0.003c0.476-0.214,0.958-0.212,1.433,0.002c0.354,0.16,0.7,0.158,1.054-0.001
		c0.476-0.214,0.958-0.214,1.433,0c0.36,0.162,0.709,0.158,1.067-0.005c0.47-0.213,0.948-0.213,1.418,0.002
		c0.359,0.164,0.708,0.163,1.067,0c0.475-0.215,0.956-0.215,1.432,0.003c0.353,0.162,0.702,0.166,1.052-0.002
		c0.229-0.11,0.469-0.164,0.724-0.15c0.156,0.008,0.268,0.111,0.277,0.257c0.01,0.163-0.094,0.309-0.257,0.308
		c-0.233-0.002-0.434,0.089-0.646,0.162C17.895,15.35,17.683,15.382,17.445,15.438z"/>
	<path d="M17.473,16.853c-0.252-0.069-0.503-0.114-0.735-0.208c-0.355-0.143-0.693-0.148-1.041,0.011
		c-0.481,0.219-0.966,0.217-1.446-0.003c-0.343-0.157-0.682-0.159-1.025-0.005c-0.491,0.221-0.984,0.222-1.476-0.001
		c-0.338-0.153-0.674-0.153-1.012-0.001c-0.491,0.222-0.984,0.224-1.476,0.002c-0.343-0.155-0.681-0.151-1.025,0.003
		c-0.491,0.22-0.984,0.217-1.475-0.009c-0.336-0.154-0.672-0.15-1.01,0.007c-0.49,0.226-0.983,0.225-1.474-0.003
		c-0.337-0.156-0.673-0.156-1.01,0c-0.49,0.227-0.979,0.22-1.476,0.008c-0.156-0.066-0.333-0.091-0.502-0.116
		c-0.178-0.027-0.291-0.133-0.288-0.301c0.003-0.167,0.119-0.273,0.306-0.275c0.09-0.001,0.183-0.004,0.269,0.017
		c0.144,0.035,0.29,0.076,0.424,0.138c0.353,0.165,0.699,0.164,1.052,0c0.48-0.222,0.965-0.22,1.445,0.001
		c0.348,0.161,0.689,0.162,1.037,0.001c0.479-0.222,0.965-0.223,1.446-0.004c0.348,0.158,0.69,0.164,1.039,0.006
		c0.485-0.22,0.976-0.222,1.461-0.001c0.349,0.158,0.691,0.155,1.039-0.002c0.481-0.217,0.966-0.216,1.447,0.001
		c0.354,0.16,0.7,0.154,1.053-0.006c0.475-0.216,0.956-0.215,1.432,0.003c0.353,0.162,0.7,0.16,1.053-0.001
		c0.481-0.219,0.965-0.217,1.446,0.004c0.348,0.16,0.686,0.144,1.041,0.004c0.218-0.086,0.457-0.128,0.691-0.157
		c0.191-0.024,0.313,0.106,0.313,0.278c0,0.172-0.119,0.269-0.311,0.295c-0.17,0.023-0.336,0.075-0.503,0.119
		C17.952,16.72,17.719,16.785,17.473,16.853z"/>
	<path d="M17.448,18.114c-0.236-0.065-0.483-0.108-0.709-0.201c-0.355-0.145-0.692-0.148-1.04,0.009
		c-0.481,0.218-0.966,0.217-1.446-0.003c-0.343-0.157-0.681-0.16-1.025-0.005c-0.491,0.221-0.985,0.222-1.476,0
		c-0.338-0.153-0.672-0.154-1.011-0.002c-0.496,0.224-0.994,0.222-1.49-0.003c-0.333-0.151-0.664-0.148-0.997,0.002
		c-0.501,0.225-1.002,0.223-1.503-0.007c-0.327-0.15-0.655-0.147-0.982,0.004c-0.5,0.232-1.001,0.232-1.501-0.001
		c-0.327-0.152-0.656-0.154-0.982-0.002c-0.506,0.235-1.007,0.229-1.516,0.002c-0.141-0.063-0.304-0.087-0.46-0.105
		c-0.189-0.021-0.307-0.123-0.305-0.298c0.002-0.168,0.118-0.269,0.303-0.276c0.25-0.009,0.484,0.05,0.708,0.157
		c0.347,0.165,0.689,0.158,1.037-0.002c0.48-0.221,0.966-0.22,1.446,0c0.354,0.163,0.698,0.16,1.051-0.003
		c0.464-0.214,0.939-0.221,1.404-0.011c0.375,0.17,0.735,0.17,1.109,0.002c0.455-0.204,0.923-0.206,1.377-0.003
		c0.381,0.17,0.743,0.168,1.123-0.002c0.449-0.201,0.914-0.201,1.364,0.001c0.386,0.173,0.75,0.168,1.137-0.006
		c0.448-0.202,0.914-0.197,1.363,0.008c0.374,0.172,0.734,0.169,1.109,0c0.459-0.207,0.931-0.206,1.39,0.004
		c0.369,0.169,0.729,0.173,1.094-0.003c0.219-0.106,0.451-0.154,0.696-0.142c0.164,0.008,0.277,0.112,0.283,0.266
		c0.007,0.163-0.104,0.276-0.265,0.306c-0.203,0.038-0.401,0.098-0.602,0.147C17.91,18.003,17.69,18.055,17.448,18.114z"/>
	<path d="M11.257,11.611c-0.266,0.297-0.536,0.597-0.805,0.899c-0.427,0.477-0.851,0.956-1.282,1.43
		c-0.039,0.043-0.116,0.063-0.178,0.07c-0.073,0.008-0.149-0.012-0.224-0.015c-0.16-0.005-0.221-0.087-0.163-0.238
		c0.021-0.054,0.061-0.103,0.1-0.147c0.772-0.866,1.544-1.732,2.317-2.597c0.148-0.165,0.305-0.166,0.467-0.011
		c0.163,0.156,0.327,0.309,0.496,0.469c0.298-0.378,0.61-0.773,0.921-1.169c0.42-0.535,0.839-1.07,1.259-1.604
		c0.215-0.273,0.377-0.272,0.593,0c1.375,1.729,2.75,3.459,4.125,5.188c0.03,0.038,0.057,0.078,0.083,0.112
		c-0.223,0.011-0.439,0.026-0.656,0.028c-0.037,0-0.083-0.047-0.112-0.083c-1.218-1.529-2.434-3.059-3.65-4.589
		c-0.024-0.03-0.051-0.059-0.088-0.102c-0.228,0.29-0.45,0.57-0.671,0.851c-0.516,0.656-1.031,1.313-1.547,1.969
		c-0.145,0.185-0.314,0.192-0.483,0.027C11.595,11.938,11.43,11.779,11.257,11.611z"/>
	<path d="M18.159,9.117c0,0.056,0,0.103,0,0.15c0,0.53,0.001,1.061,0,1.591c0,0.189-0.115,0.321-0.278,0.326
		c-0.166,0.005-0.29-0.133-0.291-0.329c-0.001-0.575,0-1.15,0-1.769C17.478,9.23,17.39,9.345,17.302,9.46
		c-0.139,0.183-0.3,0.224-0.445,0.113c-0.142-0.11-0.147-0.277-0.01-0.461c0.179-0.241,0.346-0.491,0.543-0.717
		c0.175-0.201,0.246-0.415,0.179-0.696c-0.101,0.135-0.195,0.264-0.293,0.39c-0.102,0.132-0.237,0.17-0.368,0.106
		c-0.169-0.082-0.215-0.279-0.095-0.443c0.219-0.298,0.438-0.596,0.666-0.887c0.082-0.105,0.122-0.209,0.111-0.342
		c-0.009-0.117-0.002-0.236-0.002-0.399c-0.118,0.156-0.208,0.279-0.301,0.398c-0.129,0.165-0.285,0.2-0.426,0.097
		C16.72,6.517,16.709,6.34,16.836,6.17c0.257-0.344,0.515-0.688,0.773-1.031c0.161-0.214,0.368-0.214,0.529,0
		c0.259,0.343,0.516,0.687,0.773,1.031c0.127,0.17,0.116,0.346-0.026,0.449c-0.141,0.103-0.298,0.069-0.426-0.096
		c-0.092-0.118-0.18-0.239-0.285-0.356c0.011,0.245-0.088,0.493,0.109,0.724c0.227,0.265,0.424,0.556,0.632,0.837
		c0.122,0.164,0.11,0.33-0.027,0.436c-0.14,0.109-0.307,0.07-0.436-0.101c-0.089-0.118-0.179-0.236-0.281-0.371
		c-0.034,0.255-0.022,0.462,0.149,0.657c0.216,0.247,0.4,0.523,0.596,0.789c0.121,0.165,0.108,0.332-0.029,0.436
		c-0.139,0.106-0.303,0.072-0.427-0.091c-0.088-0.115-0.175-0.231-0.263-0.346C18.194,9.13,18.183,9.129,18.159,9.117z"/>
	<path d="M1.681,8.412c-0.061,0.094-0.106,0.17-0.157,0.242c-0.1,0.141-0.257,0.175-0.393,0.088C1.002,8.66,0.959,8.489,1.045,8.347
		c0.229-0.375,0.46-0.749,0.699-1.118c0.13-0.2,0.362-0.195,0.492,0.006C2.468,7.598,2.694,7.963,2.92,8.329
		c0.099,0.161,0.062,0.329-0.081,0.417C2.693,8.835,2.539,8.789,2.431,8.625C2.388,8.559,2.346,8.492,2.289,8.431
		C2.282,8.625,2.236,8.812,2.366,8.997C2.56,9.275,2.73,9.57,2.908,9.859c0.107,0.173,0.08,0.34-0.064,0.432
		c-0.142,0.091-0.31,0.04-0.419-0.127C2.383,10.1,2.342,10.034,2.271,9.98c0,0.368,0,0.736,0,1.104c0,0.07,0.002,0.14-0.001,0.21
		c-0.007,0.184-0.117,0.307-0.276,0.312c-0.158,0.005-0.294-0.132-0.296-0.313c-0.004-0.38-0.001-0.761-0.001-1.141
		c0-0.054,0-0.108-0.027-0.175c-0.043,0.068-0.084,0.138-0.129,0.205c-0.104,0.155-0.275,0.198-0.414,0.105
		c-0.134-0.09-0.165-0.254-0.07-0.409C1.21,9.626,1.354,9.367,1.527,9.13C1.684,8.917,1.729,8.693,1.681,8.412z"/>
	<path d="M6.446,13.122c0.502-0.591,0.995-1.17,1.487-1.749c0.142-0.168,0.283-0.337,0.428-0.502c0.132-0.149,0.29-0.165,0.42-0.051
		c0.129,0.113,0.136,0.278,0.011,0.425c-0.695,0.82-1.391,1.639-2.089,2.457c-0.184,0.216-0.352,0.21-0.53-0.009
		c-0.29-0.356-0.58-0.711-0.883-1.082c-0.232,0.272-0.455,0.533-0.678,0.794c-0.097,0.114-0.191,0.231-0.293,0.342
		c-0.125,0.136-0.286,0.147-0.411,0.037c-0.119-0.105-0.129-0.281-0.015-0.417c0.387-0.458,0.776-0.915,1.167-1.37
		c0.147-0.171,0.336-0.161,0.484,0.02C5.841,12.38,6.138,12.744,6.446,13.122z"/>
	<path d="M6.346,5.401C6.348,6.031,5.845,6.538,5.22,6.537C4.605,6.536,4.095,6.029,4.093,5.415
		c-0.002-0.633,0.489-1.133,1.121-1.14C5.841,4.268,6.344,4.769,6.346,5.401z M5.229,4.852c-0.318-0.002-0.566,0.24-0.566,0.552
		c0,0.298,0.251,0.556,0.55,0.563C5.509,5.974,5.77,5.721,5.774,5.421C5.779,5.097,5.546,4.854,5.229,4.852z"/>
	<path d="M14.657,11.76c-0.162,0.199-0.311,0.386-0.464,0.57c-0.141,0.17-0.299,0.199-0.439,0.082
		c-0.129-0.108-0.134-0.281-0.008-0.439c0.215-0.269,0.431-0.538,0.65-0.805c0.151-0.184,0.335-0.185,0.495-0.007
		c0.397,0.443,0.793,0.886,1.19,1.33c0.134,0.15,0.143,0.325,0.023,0.44c-0.128,0.124-0.301,0.106-0.444-0.053
		C15.328,12.511,14.999,12.142,14.657,11.76z"/>
	<path d="M4.273,6.583c-0.003,0.234-0.471,0.72-0.637,0.695C3.541,7.264,3.424,7.191,3.383,7.111
		c-0.038-0.073-0.021-0.216,0.03-0.285C3.525,6.675,3.67,6.548,3.81,6.42c0.089-0.081,0.208-0.097,0.304-0.026
		C4.191,6.451,4.241,6.544,4.273,6.583z"/>
	<path d="M7.121,7.036C7.062,7.105,7.009,7.194,6.933,7.25C6.839,7.32,6.725,7.298,6.642,7.223C6.498,7.092,6.358,6.956,6.23,6.81
		C6.135,6.701,6.156,6.542,6.253,6.442c0.098-0.1,0.26-0.124,0.366-0.03c0.149,0.132,0.288,0.277,0.423,0.423
		C7.079,6.876,7.086,6.943,7.121,7.036z"/>
	<path d="M3.638,3.529c0.022,0.003,0.069-0.005,0.089,0.014c0.182,0.181,0.373,0.355,0.53,0.556
		c0.069,0.088-0.002,0.213-0.095,0.288c-0.099,0.08-0.222,0.102-0.317,0.02c-0.165-0.142-0.331-0.292-0.46-0.466
		C3.257,3.771,3.409,3.532,3.638,3.529z"/>
	<path d="M5.503,7.416c0,0.08,0.002,0.16,0,0.24c-0.004,0.16-0.114,0.279-0.264,0.29c-0.14,0.01-0.291-0.108-0.3-0.257
		c-0.011-0.189-0.012-0.38,0-0.569c0.01-0.152,0.154-0.261,0.303-0.25c0.145,0.01,0.255,0.125,0.26,0.276
		C5.505,7.236,5.502,7.326,5.503,7.416z"/>
	<path d="M3.225,5.695c-0.08,0-0.16,0.003-0.239-0.001c-0.175-0.009-0.301-0.131-0.3-0.29c0-0.162,0.121-0.277,0.302-0.281
		c0.16-0.003,0.319-0.004,0.479,0c0.17,0.004,0.291,0.12,0.294,0.275c0.004,0.149-0.12,0.282-0.281,0.295
		C3.395,5.699,3.31,5.694,3.225,5.695C3.225,5.694,3.225,5.694,3.225,5.695z"/>
	<path d="M6.83,3.497c0.077,0.06,0.191,0.105,0.223,0.183C7.087,3.766,7.082,3.909,7.03,3.981C6.921,4.133,6.776,4.262,6.635,4.387
		c-0.113,0.1-0.276,0.082-0.379-0.022c-0.11-0.111-0.118-0.271-0.008-0.39c0.118-0.129,0.241-0.253,0.37-0.37
		C6.666,3.562,6.737,3.543,6.83,3.497z"/>
	<path d="M7.213,5.694c-0.08,0-0.16,0.004-0.239-0.001c-0.17-0.011-0.299-0.147-0.292-0.3c0.008-0.158,0.125-0.266,0.299-0.27
		C7.14,5.12,7.3,5.12,7.459,5.123c0.176,0.004,0.288,0.111,0.293,0.271c0.004,0.168-0.108,0.289-0.285,0.3
		C7.383,5.699,7.298,5.694,7.213,5.694z"/>
	<path d="M5.503,3.401c0,0.085,0.002,0.17,0,0.254c-0.005,0.16-0.116,0.274-0.27,0.28C5.081,3.941,4.945,3.831,4.937,3.679
		c-0.01-0.184-0.01-0.369,0-0.553C4.945,2.97,5.075,2.867,5.231,2.871c0.157,0.004,0.266,0.114,0.271,0.276
		C5.505,3.232,5.503,3.317,5.503,3.401z"/>
</g>
</svg>
